<?xml version="1.0" standalone="no"?>
<!DOCTYPE svg PUBLIC "-//W3C//DTD SVG 20010904//EN"
 "http://www.w3.org/TR/2001/REC-SVG-20010904/DTD/svg10.dtd">
<svg version="1.0" xmlns="http://www.w3.org/2000/svg"
 width="900.000000pt" height="900.000000pt" viewBox="0 0 900.000000 900.000000"
 preserveAspectRatio="xMidYMid meet">
<metadata>
Created by potrace 1.14, written by Peter Selinger 2001-2017
</metadata>
<g transform="translate(0.000000,900.000000) scale(0.100000,-0.100000)"
fill="#000000" stroke="none">
<path d="M2955 7800 c-33 -27 -63 -50 -68 -50 -4 0 -5 -4 -2 -10 3 -5 0 -7 -8
-4 -9 3 -41 -21 -84 -65 -39 -39 -73 -71 -78 -71 -9 0 35 61 84 115 20 22 25
31 11 19 -62 -50 -62 -50 -49 -21 7 15 15 27 19 27 3 0 14 6 25 13 17 13 17
14 -3 12 -11 0 -26 -6 -34 -12 -7 -6 -26 -13 -41 -15 -27 -5 -27 -5 -10 15 21
24 6 17 -43 -20 -34 -26 -48 -29 -39 -10 3 6 -2 2 -11 -10 -9 -13 -24 -23 -33
-23 -13 1 -13 3 3 15 12 9 15 15 7 15 -14 0 -12 25 5 65 4 11 -14 -5 -40 -35
-26 -30 -57 -63 -68 -72 -24 -21 -45 -24 -32 -5 5 7 -2 0 -16 -15 -24 -27 -48
-39 -34 -17 12 19 -28 -6 -78 -51 -52 -46 -53 -45 -36 12 8 27 18 40 36 45 16
4 20 8 11 13 -8 6 3 18 36 39 27 17 53 31 59 31 5 0 7 3 3 6 -3 3 -31 -8 -62
-24 -45 -24 -56 -27 -51 -14 5 13 3 13 -9 -2 -8 -11 -15 -23 -15 -26 0 -10
-80 -72 -95 -74 -8 -1 -27 -13 -41 -27 l-27 -24 7 29 c7 31 41 65 66 66 11 1
11 3 2 7 -7 3 -19 -1 -28 -7 -12 -11 -13 -10 -8 6 4 10 11 24 16 30 5 7 7 17
6 24 -2 7 25 32 60 56 35 24 60 44 55 44 -14 0 -75 -40 -140 -92 -63 -50 -82
-55 -41 -11 12 13 17 23 12 23 -5 0 -18 -14 -29 -30 -19 -29 -97 -98 -81 -72
5 8 2 10 -8 6 -9 -3 -14 -9 -11 -14 5 -9 -53 -66 -60 -58 -10 9 6 35 28 47
l22 11 -22 -6 c-13 -3 -23 -2 -23 1 0 23 30 51 83 76 52 25 50 31 -2 11 -10
-4 -12 -1 -6 9 4 8 -5 2 -22 -13 -31 -30 -54 -38 -33 -13 9 11 9 15 1 15 -12
0 -35 -48 -32 -67 2 -13 -40 -45 -48 -37 -3 3 5 14 19 26 14 11 18 18 8 15
-14 -5 -15 -3 -3 20 7 14 11 32 8 41 -4 10 -2 13 5 8 6 -3 14 -1 18 5 4 8 3 9
-4 5 -7 -4 -12 -1 -12 6 -1 13 -37 -49 -42 -72 -4 -17 -45 -62 -54 -60 -4 1
-11 -5 -16 -14 -34 -61 -17 48 18 117 8 15 12 27 9 27 -8 0 -50 -96 -59 -134
-12 -49 -16 -23 -6 44 5 35 8 66 6 67 -2 2 -10 -15 -19 -37 -8 -22 -12 -38 -7
-35 19 12 -2 -100 -23 -120 l-20 -20 8 20 c4 11 9 34 11 50 2 17 -6 1 -17 -35
-12 -35 -34 -84 -51 -107 -41 -60 -81 -150 -72 -164 4 -8 10 -5 17 7 18 36 80
124 84 120 4 -3 -33 -71 -50 -91 -35 -43 -87 -119 -87 -128 0 -12 5 -7 38 37
12 16 22 24 22 19 0 -6 -7 -16 -15 -23 -8 -7 -15 -20 -15 -28 0 -13 3 -12 15
4 14 18 14 17 15 -14 0 -36 -17 -74 -74 -166 -32 -54 -44 -86 -31 -86 2 0 16
21 30 48 24 44 26 45 21 15 -3 -19 -1 -33 4 -33 6 0 10 7 10 16 0 9 6 30 14
47 8 18 17 39 19 47 3 8 6 2 6 -13 1 -15 -6 -43 -13 -62 -16 -38 -6 -49 12
-12 21 42 14 -35 -9 -99 -11 -32 -21 -66 -23 -74 -1 -8 -17 -35 -35 -60 -42
-57 -63 -98 -59 -112 2 -6 18 14 36 45 17 30 45 71 62 90 18 21 28 41 24 50
-5 15 27 57 44 57 13 0 12 -38 -1 -68 -18 -38 -67 -118 -99 -159 -16 -20 -28
-41 -28 -47 0 -6 8 -2 16 9 16 20 16 20 9 -2 -4 -14 -2 -23 4 -23 6 0 11 5 11
10 0 16 30 84 34 79 3 -2 -2 -31 -10 -64 -8 -33 -13 -86 -12 -118 1 -45 -3
-62 -19 -80 -24 -27 -63 -83 -63 -91 0 -16 17 -2 38 29 12 19 27 35 32 35 6 0
-3 -19 -20 -42 -16 -22 -30 -48 -30 -57 0 -11 6 -8 18 10 29 42 77 99 84 99
12 0 1 -45 -20 -80 -28 -45 -28 -65 0 -22 15 25 23 30 29 20 15 -23 10 -46
-21 -95 -31 -49 -36 -63 -21 -63 5 0 14 14 21 30 7 17 16 33 21 36 16 10 -43
-131 -65 -156 -32 -35 -84 -113 -96 -144 -16 -42 5 -30 25 14 10 23 23 44 28
47 6 3 7 1 4 -4 -4 -6 0 -16 8 -23 12 -10 17 -6 32 24 18 39 38 50 24 14 -4
-13 -6 -28 -4 -34 2 -6 -10 -45 -27 -86 -35 -89 -53 -164 -48 -210 2 -25 7
-13 20 52 17 85 52 193 45 138 -3 -17 1 -29 10 -32 21 -8 23 -8 23 9 0 17 29
79 34 73 7 -8 -24 -181 -35 -194 -6 -8 -13 -32 -15 -54 -2 -25 -16 -57 -38
-88 -47 -64 -78 -135 -64 -143 7 -4 6 -13 -2 -29 -6 -12 -9 -24 -6 -28 3 -3 7
-3 9 -1 1 2 19 38 40 79 39 76 96 155 97 133 0 -7 -16 -34 -36 -60 -42 -55
-88 -143 -75 -143 5 0 23 24 40 54 16 30 35 58 42 62 6 4 10 3 7 -2 -36 -75
-49 -107 -46 -115 2 -6 19 22 37 61 19 39 35 69 37 67 8 -8 -27 -98 -60 -151
-37 -61 -42 -76 -28 -76 4 0 13 15 20 33 28 77 37 73 35 -14 -2 -71 -6 -90
-36 -148 -42 -79 -52 -111 -38 -111 6 0 11 6 11 14 0 23 71 156 84 156 6 0 19
12 28 28 9 15 27 37 40 49 l23 22 2 -29 c1 -16 -5 -34 -14 -42 -15 -11 -16
-11 -10 5 12 33 -2 17 -23 -25 -11 -24 -31 -58 -45 -77 -30 -41 -33 -67 -4
-31 l20 25 -5 -35 c-3 -19 -8 -62 -11 -95 -4 -33 -18 -95 -32 -138 -14 -43
-22 -81 -18 -85 9 -10 22 16 29 59 3 22 11 39 18 39 18 0 4 -159 -19 -205 -24
-48 -46 -126 -41 -146 1 -8 -7 -28 -18 -44 -32 -45 -64 -112 -57 -118 3 -4 18
20 33 52 29 61 59 95 40 47 -17 -45 3 -31 54 37 16 21 30 36 32 35 1 -2 -1
-44 -6 -94 -9 -99 -25 -138 -104 -261 -45 -71 -71 -133 -56 -133 5 0 12 10 16
23 8 26 83 155 94 162 16 10 -3 -81 -31 -152 -37 -91 -37 -123 -1 -61 28 50
45 56 50 21 2 -13 -13 -39 -38 -68 -43 -49 -76 -105 -63 -105 5 0 16 15 26 33
18 32 87 110 123 137 12 9 15 9 7 1 -6 -7 -9 -19 -7 -25 3 -7 -16 -52 -41
-101 -24 -50 -44 -97 -44 -105 0 -9 5 -6 11 8 6 12 15 22 20 22 4 0 8 8 8 18
0 26 10 33 26 17 12 -11 8 -22 -21 -71 -19 -32 -35 -61 -35 -66 0 -12 24 -10
38 4 9 9 9 4 2 -23 -6 -18 -10 -49 -10 -67 0 -21 -10 -47 -26 -68 -15 -19 -25
-37 -22 -40 10 -9 60 67 63 96 4 33 34 93 35 70 0 -12 3 -11 11 3 5 9 14 17
20 17 12 0 -20 -51 -43 -68 -18 -13 -26 -38 -9 -28 7 5 8 -26 2 -66 -1 -4 -23
-32 -50 -62 -55 -61 -74 -91 -68 -109 2 -7 11 2 20 18 22 40 67 93 67 79 0 -6
-8 -22 -18 -35 -35 -46 -52 -79 -43 -79 6 0 29 25 52 56 22 30 43 54 45 52 8
-9 -39 -114 -66 -148 -43 -54 -82 -133 -76 -154 3 -11 1 -27 -5 -37 -6 -11 -5
-20 1 -24 5 -3 10 -1 10 6 0 6 10 27 21 46 34 54 41 20 9 -40 -33 -62 -45 -97
-32 -97 5 0 14 12 21 27 23 51 106 156 109 139 2 -9 -6 -32 -18 -52 -28 -45
-20 -56 9 -12 18 26 21 28 16 9 -5 -16 -4 -21 4 -17 18 11 13 -3 -33 -103 -50
-109 -61 -141 -48 -141 5 0 14 18 21 40 15 51 26 57 26 15 0 -27 -11 -45 -56
-92 -55 -57 -87 -103 -72 -103 4 0 18 12 31 28 l23 27 -16 -33 c-9 -19 -32
-54 -51 -79 -19 -25 -32 -48 -29 -52 4 -3 16 8 28 24 28 40 155 165 167 165
18 0 10 -36 -11 -56 -31 -28 -82 -104 -69 -104 5 0 10 3 10 8 0 4 14 23 30 42
l29 35 -19 -55 c-10 -30 -27 -75 -39 -100 -11 -25 -20 -54 -20 -65 0 -17 2
-17 11 5 31 68 70 146 79 155 16 17 -2 -57 -28 -107 -49 -99 -84 -218 -64
-218 6 0 11 8 11 18 0 34 41 139 54 139 11 0 9 -9 -5 -41 -19 -44 -16 -62 7
-32 18 25 18 12 -1 -50 -8 -27 -15 -50 -15 -51 0 -1 6 0 14 3 8 3 18 19 21 35
4 16 11 29 16 29 16 0 10 -20 -20 -64 -17 -24 -33 -56 -37 -72 l-7 -29 32 35
32 35 -12 -30 c-17 -43 -28 -95 -20 -95 3 0 17 34 29 74 13 41 31 77 39 80 26
11 8 -61 -30 -119 -35 -52 -77 -129 -77 -141 0 -3 7 -1 15 6 12 10 15 9 15 -8
0 -11 5 -22 11 -24 7 -2 7 -12 -1 -32 -16 -42 -6 -42 20 -1 12 20 25 34 28 31
3 -4 -11 -30 -30 -58 -38 -56 -55 -98 -41 -98 5 0 14 15 21 32 7 18 22 44 33
58 l21 25 -6 -38 c-2 -21 -16 -62 -30 -92 -14 -29 -26 -58 -26 -63 0 -5 -9
-17 -20 -27 -23 -21 -80 -104 -80 -117 0 -20 17 -4 39 36 25 49 54 79 76 82
22 3 19 -48 -4 -77 -27 -35 -53 -89 -42 -89 5 0 14 14 21 30 17 40 31 48 21
12 -15 -52 -22 -147 -11 -162 7 -12 10 -8 10 18 0 17 3 32 8 32 4 0 20 30 36
66 40 91 54 63 19 -39 -18 -55 -23 -87 -19 -112 8 -43 26 -46 26 -5 0 33 29
100 43 100 5 0 6 -8 3 -17 -14 -35 -19 -133 -8 -146 6 -7 14 -32 18 -55 4 -23
11 -42 16 -42 5 0 7 12 4 27 -3 16 -7 62 -10 103 l-5 75 17 -62 c21 -77 37
-94 29 -31 -4 27 -2 50 3 53 6 3 10 23 10 43 0 28 3 33 10 22 6 -8 8 -28 5
-45 -5 -29 -5 -29 7 -8 23 39 35 11 40 -90 3 -54 10 -103 17 -110 13 -13 13
-16 0 80 -6 43 -8 102 -4 132 l7 54 18 -41 c21 -47 35 -55 28 -17 -3 14 -1 28
3 31 5 3 9 -9 9 -25 0 -17 4 -31 9 -31 5 0 12 -13 16 -30 4 -16 11 -33 17 -36
7 -5 9 1 5 17 -3 13 -2 30 2 37 5 9 10 0 15 -27 3 -22 11 -43 17 -47 9 -5 10
1 4 22 -14 53 -22 115 -15 119 11 7 30 -42 31 -78 l1 -32 12 40 13 40 12 -28
c6 -16 11 -33 11 -38 0 -5 4 -9 10 -9 6 0 6 9 0 26 -15 38 -12 84 4 84 8 0 16
-16 20 -40 8 -49 22 -53 21 -5 -2 40 11 37 20 -5 4 -17 10 -30 14 -30 4 0 5
-15 3 -32 -2 -18 1 -44 7 -58 l10 -25 0 29 c1 16 4 26 7 23 4 -4 21 15 37 41
23 34 32 42 35 30 2 -10 8 -18 13 -18 6 0 9 -7 7 -16 -5 -29 19 -26 27 3 l8
28 15 -35 c17 -41 29 -24 13 21 -7 20 -7 37 -1 48 8 13 10 12 11 -9 1 -23 2
-23 9 5 l8 30 1 -33 c1 -30 3 -32 22 -21 19 10 20 8 14 -10 -9 -28 13 -28 24
0 7 20 8 19 23 -12 9 -19 18 -41 21 -49 3 -8 6 3 7 25 1 35 2 37 11 17 5 -13
15 -30 24 -38 13 -13 14 -10 11 26 -2 22 -2 40 0 40 6 0 41 -82 59 -137 9 -29
21 -53 26 -53 12 0 12 -3 -10 55 -28 76 -33 115 -16 115 10 0 15 10 15 30 0
17 3 30 8 30 9 -1 42 -66 42 -85 0 -8 5 -15 10 -15 6 0 10 -6 10 -14 0 -8 5
-18 12 -22 8 -5 9 0 6 14 -4 12 -2 22 4 22 5 0 7 8 4 18 -2 9 -7 27 -11 39 -5
18 -3 22 9 17 9 -3 16 -1 16 5 0 6 6 8 14 5 11 -4 13 1 10 18 -2 13 -2 17 2
11 9 -20 26 -15 19 6 -3 10 1 23 9 30 12 10 16 3 25 -39 6 -28 12 -65 12 -83
1 -21 3 -25 6 -12 7 30 23 43 23 18 0 -11 7 -23 15 -27 12 -4 14 0 9 19 -7 30
14 98 28 89 6 -4 8 -30 4 -68 l-5 -61 16 43 c10 23 21 42 25 42 4 0 3 -12 -2
-26 -15 -39 -12 -65 3 -36 l13 23 14 -28 13 -28 8 25 c6 23 7 23 8 3 1 -12 15
-37 31 -55 33 -35 38 -32 17 10 -8 15 -14 43 -15 62 -1 33 -1 34 9 10 9 -22
11 -23 20 -8 6 11 6 25 1 35 -14 28 -20 76 -12 98 l7 20 6 -20 c3 -11 8 -35
12 -53 4 -17 11 -32 16 -32 5 0 9 -11 9 -25 0 -14 5 -25 10 -25 6 0 8 10 5 22
-3 13 -1 37 5 53 l10 30 -4 -29 c-8 -56 17 -79 28 -25 3 17 10 28 16 24 6 -4
10 6 11 22 1 18 4 11 11 -22 14 -73 25 -75 22 -3 l-3 63 10 -55 c6 -30 8 -75
5 -99 -5 -38 -4 -42 9 -31 8 7 15 21 15 31 0 9 7 24 15 32 8 8 11 18 7 22 -4
5 -1 5 6 1 6 -4 12 -14 12 -22 0 -8 4 -14 9 -14 5 0 7 10 4 23 -4 17 -3 19 6
11 7 -6 17 -42 23 -80 15 -105 18 -114 27 -114 5 0 5 16 1 37 -11 48 -12 193
-1 193 12 0 21 -26 21 -56 0 -14 4 -22 10 -19 6 4 10 -20 10 -64 0 -38 5 -73
10 -76 6 -4 10 15 10 49 0 43 5 61 20 76 11 11 25 20 31 20 6 0 8 10 5 23 l-6
22 11 -22 c17 -33 29 -28 24 10 l-5 32 12 -27 c18 -43 28 -33 23 22 -6 57 9
68 19 15 4 -19 11 -37 16 -40 13 -8 13 21 0 46 -7 13 -7 19 0 19 5 0 10 10 10
22 0 38 10 13 24 -62 8 -40 20 -76 28 -81 18 -12 22 5 7 33 -11 21 -11 22 4 9
13 -10 17 -31 17 -87 0 -48 4 -74 11 -74 7 0 9 11 6 30 -4 16 -4 59 0 96 l6
67 19 -52 c11 -28 24 -49 29 -46 5 4 5 14 -1 25 -9 16 -8 18 6 13 13 -5 12 1
-5 35 -12 23 -21 52 -20 64 1 22 2 20 15 -22 4 -12 6 -12 14 -1 6 10 13 -1 24
-39 9 -30 16 -59 16 -67 0 -7 6 -10 15 -6 9 3 15 2 14 -3 -4 -23 2 -77 8 -71
3 4 6 35 4 70 l-2 62 21 -25 c15 -20 20 -21 20 -8 0 9 -4 20 -10 23 -5 3 -10
11 -10 17 0 18 50 -41 51 -60 0 -9 8 8 19 38 10 30 18 47 19 37 1 -10 5 -15
11 -12 6 3 10 -4 10 -17 0 -13 5 -30 11 -38 7 -11 8 2 4 45 -5 43 -3 56 4 45
6 -8 11 -23 11 -32 0 -11 5 -15 15 -12 8 4 15 12 15 20 0 8 4 14 10 14 5 0 3
-19 -5 -41 -17 -48 -21 -113 -5 -89 5 8 10 25 10 37 0 12 5 34 11 50 l11 28
13 -33 c14 -32 33 -47 21 -16 -3 8 1 22 9 30 13 14 15 10 15 -30 0 -25 5 -46
10 -46 6 0 10 -6 10 -14 0 -8 4 -17 8 -20 5 -3 7 23 6 57 -3 73 5 92 22 52
l12 -30 11 28 c6 16 11 35 11 43 0 20 18 18 23 -3 4 -14 5 -12 6 5 0 12 6 22
12 22 7 0 9 -11 6 -30 -7 -34 4 -39 31 -12 19 19 47 18 35 -1 -4 -7 -8 -28
-10 -47 -1 -19 -4 -57 -7 -85 -6 -53 1 -40 23 43 10 35 15 42 31 37 17 -5 18
-3 9 27 -11 40 -11 38 0 38 5 0 11 -12 14 -28 8 -42 31 -102 39 -102 4 0 8 10
10 23 3 18 8 15 28 -25 28 -55 46 -56 20 0 -9 20 -20 50 -24 66 -6 24 -4 28
10 22 13 -5 15 -2 11 14 -3 11 -1 20 4 20 5 0 9 11 9 24 0 14 5 28 12 32 8 5
9 2 5 -10 -5 -14 -3 -17 8 -12 18 7 18 7 0 -37 -21 -52 -17 -80 5 -32 l18 40
10 -27 c7 -16 9 -54 5 -93 -4 -45 -2 -65 5 -65 15 0 26 43 17 69 -5 17 -3 20
11 14 14 -5 16 -3 9 13 -15 36 -17 70 -5 114 l11 43 25 -53 c13 -28 24 -68 25
-88 1 -36 1 -36 14 13 37 147 48 166 61 101 3 -21 11 -33 18 -30 8 3 12 -17
14 -66 2 -39 10 -89 18 -113 l14 -42 -5 42 c-4 37 -3 42 12 36 10 -4 14 -2 10
4 -12 19 -18 175 -6 167 6 -3 9 -23 7 -44 -3 -32 9 -60 26 -60 2 0 2 18 -1 40
-4 28 -2 40 7 40 8 0 10 8 6 25 -4 14 -5 25 -2 25 6 0 34 -92 41 -140 9 -54
30 -110 43 -110 5 0 1 24 -9 53 -10 28 -18 68 -18 87 l0 35 14 -25 14 -25 1
23 c0 13 4 20 10 17 6 -3 10 0 11 7 2 42 19 79 19 42 0 -31 20 -94 30 -94 5 0
5 14 -1 32 -6 22 -5 34 2 39 7 4 6 17 -6 39 -9 17 -14 34 -11 38 3 3 6 0 6 -6
0 -27 19 -9 23 21 2 17 5 -3 5 -45 2 -87 19 -181 32 -173 5 3 4 20 0 38 -14
52 -14 237 1 237 4 0 10 8 12 17 4 11 5 9 5 -7 -2 -64 3 -100 17 -114 8 -8 15
-23 15 -34 0 -35 12 -82 21 -82 5 0 7 12 4 27 l-5 28 12 -27 c17 -39 23 -35
25 20 3 60 22 142 34 142 5 0 9 -19 10 -42 1 -37 2 -39 9 -18 7 21 8 19 9 -17
1 -48 21 -60 21 -13 0 17 4 30 9 30 11 0 22 -50 27 -120 5 -77 13 -120 23
-120 5 0 5 17 0 38 -5 20 -8 53 -8 72 l1 35 10 -27 c5 -16 14 -28 19 -28 5 0
5 10 0 23 -15 40 -21 106 -11 112 5 3 10 18 10 32 0 17 4 24 14 20 11 -4 13 3
8 35 -4 30 -2 39 6 34 7 -4 12 -22 12 -39 1 -60 33 -177 50 -177 4 0 -1 24
-11 53 -9 28 -20 70 -23 92 -6 38 -5 37 14 -14 24 -66 35 -78 26 -30 -3 20 -2
47 3 60 8 20 10 16 11 -26 l1 -50 13 48 c7 26 16 50 19 53 6 6 19 -28 16 -42
-5 -27 2 -94 10 -94 5 0 6 21 3 46 -4 35 -2 45 7 39 8 -4 12 -2 10 6 -4 32 2
69 11 69 6 0 10 -23 10 -51 0 -30 4 -48 10 -44 5 3 7 19 3 35 -7 35 4 40 17 8
8 -22 9 -21 10 7 1 17 1 41 0 55 l-1 25 16 -23 c9 -12 21 -52 26 -88 11 -81
33 -125 24 -49 -18 143 -18 133 -2 105 8 -14 17 -42 21 -62 12 -64 21 -49 21
32 0 54 4 83 14 92 11 11 13 9 9 -14 -3 -16 -1 -28 5 -28 14 0 43 -35 57 -70
7 -17 16 -30 21 -30 12 0 11 7 -5 33 -20 29 -49 117 -42 124 5 5 20 -25 40
-81 3 -10 9 -17 11 -14 3 3 0 20 -7 38 -8 24 -8 35 0 38 6 2 8 17 5 39 -4 26
-3 34 5 29 7 -4 12 -25 12 -47 0 -22 4 -38 9 -35 4 3 7 22 4 42 -5 52 12 34
26 -28 6 -29 19 -64 27 -78 12 -20 14 -21 11 -5 -3 11 -8 28 -12 38 -5 12 -2
17 10 17 12 0 15 5 10 18 -19 45 -45 136 -44 155 0 15 4 10 10 -13 5 -19 13
-42 18 -50 5 -9 12 -30 15 -48 11 -48 24 -48 34 0 l9 43 12 -42 c6 -24 16 -43
21 -43 6 0 6 9 1 23 -13 33 -17 80 -8 94 5 7 3 21 -3 32 -5 11 -10 32 -9 48 1
20 7 9 20 -37 26 -87 69 -190 79 -190 5 0 -4 28 -19 63 -27 60 -47 127 -38
127 2 0 17 -34 31 -74 15 -41 34 -80 42 -87 19 -16 18 -5 -7 43 -13 26 -17 44
-11 46 7 2 3 15 -9 35 -23 39 -26 65 -4 47 12 -10 13 -6 8 26 -4 25 -3 35 5
31 5 -4 13 -26 17 -50 11 -69 25 -117 35 -117 6 0 6 9 1 23 -4 12 -11 41 -15
64 -5 37 -4 42 11 36 11 -4 14 -3 9 5 -9 15 4 63 15 56 5 -3 10 -40 10 -82 1
-42 3 -69 6 -60 5 21 14 23 32 6 12 -11 13 -9 6 7 -14 37 -18 75 -6 75 6 0 11
-5 11 -11 0 -6 7 -9 15 -5 8 3 15 0 15 -6 0 -21 12 0 20 34 l7 33 28 -63 c15
-34 30 -60 33 -58 2 3 -5 27 -16 54 -12 27 -24 69 -27 93 -5 43 -4 43 14 -15
22 -67 31 -78 49 -67 10 6 7 20 -11 62 -13 30 -27 68 -30 84 -5 26 -4 24 13
-10 20 -43 25 -32 11 26 -9 39 3 79 13 46 17 -53 18 -53 31 -17 10 26 14 30
14 13 1 -12 12 -30 26 -41 13 -11 30 -31 36 -46 22 -48 27 -27 8 35 -21 67
-23 79 -11 79 4 0 13 -20 20 -45 7 -25 16 -45 21 -45 5 0 3 21 -5 47 -8 27
-13 55 -11 63 2 8 9 -5 16 -30 34 -125 42 -150 50 -150 20 0 18 31 -5 76 -15
31 -20 50 -14 54 7 5 8 15 1 33 -6 15 -9 47 -7 72 4 48 16 75 16 36 0 -13 9
-34 20 -48 11 -14 20 -38 20 -53 0 -34 19 -90 31 -90 5 0 4 12 -2 28 -6 15
-12 57 -15 94 -5 84 10 83 50 -3 15 -33 29 -59 31 -57 2 2 -5 30 -16 62 -11
32 -18 61 -15 64 3 3 11 -9 17 -26 6 -19 16 -29 24 -26 8 4 17 -8 25 -30 6
-20 16 -36 22 -36 6 0 7 8 3 18 -25 60 -27 74 -16 81 9 6 9 15 1 35 -12 33
-13 66 -1 66 5 0 12 -11 15 -25 4 -14 11 -25 17 -25 6 0 8 4 4 9 -3 5 -9 30
-14 55 -6 35 -5 50 7 67 14 20 15 20 33 -20 10 -23 23 -41 29 -41 6 0 2 17
-10 39 -21 42 -39 133 -23 116 5 -5 15 -29 22 -52 6 -24 16 -43 21 -43 6 0 6
10 0 26 -6 14 -10 46 -9 72 1 44 2 42 13 -25 7 -40 16 -76 20 -80 7 -7 2 53
-10 137 -5 29 -3 33 8 22 7 -7 13 -16 14 -20 1 -16 33 -112 44 -131 6 -12 15
-21 20 -21 5 0 -3 25 -16 55 -32 69 -40 156 -20 210 l15 40 0 -77 c1 -45 5
-78 11 -78 9 0 15 62 11 99 -4 24 17 2 24 -26 9 -40 47 -113 58 -113 5 0 7 3
5 8 -37 70 -49 111 -55 176 -4 50 -2 76 4 76 6 0 14 -11 17 -25 4 -14 11 -25
17 -25 6 0 9 8 6 18 -18 56 -17 65 3 29 12 -22 24 -37 27 -34 2 3 0 14 -6 25
-16 29 -23 82 -11 82 5 0 10 -4 10 -10 0 -5 5 -10 11 -10 6 0 9 7 5 15 -3 8
-1 15 4 15 6 0 10 -4 10 -10 0 -5 4 -10 8 -10 4 0 8 9 8 19 0 11 -3 18 -7 15
-17 -10 -20 38 -3 57 19 21 6 26 -16 6 -8 -6 -6 -2 4 11 26 30 31 28 34 -10 3
-48 33 -167 43 -174 12 -7 12 -7 -5 68 -20 86 -28 176 -17 182 5 4 12 -12 16
-33 3 -22 13 -47 22 -58 14 -17 14 -17 8 2 -4 11 -9 27 -12 35 -3 8 5 4 17
-10 25 -28 23 -19 -14 63 -14 31 -22 57 -17 57 5 0 15 -16 21 -34 7 -23 16
-33 25 -30 8 3 16 -4 20 -16 5 -15 10 -19 17 -12 7 7 6 24 -6 52 -20 51 -33
165 -17 155 6 -3 11 -1 11 6 0 8 4 8 13 1 7 -7 18 -7 27 -2 11 7 11 16 3 47
-14 49 -12 81 7 93 11 7 11 10 2 10 -7 0 -10 5 -7 10 10 16 25 11 25 -8 0 -28
41 -142 51 -142 12 0 12 1 -5 41 -7 19 -16 55 -19 81 -5 39 -4 47 11 51 12 3
11 5 -5 6 -18 1 -23 7 -23 30 0 35 7 40 75 58 l50 13 -53 -4 c-29 -2 -55 1
-58 6 -3 5 -2 8 3 7 4 -1 17 1 28 6 11 4 35 14 53 21 29 12 32 16 22 33 -8 16
-6 22 7 31 17 11 16 11 -1 5 -11 -3 -23 0 -28 7 -12 20 -9 31 7 24 12 -4 15 0
12 22 -3 19 2 30 17 40 20 11 19 12 -6 6 -25 -5 -28 -3 -28 19 0 17 7 28 21
32 16 5 18 9 9 15 -9 6 -4 13 19 24 17 9 31 19 31 22 0 7 -58 -24 -65 -36 -13
-21 -24 -9 -23 25 1 24 7 36 19 40 10 4 18 11 16 17 -1 6 22 28 52 50 30 21
52 38 49 38 -12 0 -56 -27 -98 -60 -30 -24 -42 -29 -37 -17 4 10 7 21 7 23 0
2 6 4 14 4 8 0 18 5 22 11 4 8 -1 9 -15 4 -18 -5 -22 -3 -19 12 2 11 -2 17
-10 15 -8 -1 -12 2 -10 8 2 7 7 11 12 10 5 -1 13 5 18 14 5 9 15 13 24 9 14
-5 15 -3 5 15 -15 28 -14 32 7 33 14 0 14 2 2 7 -20 9 -25 42 -6 42 8 0 18 4
21 10 3 6 -1 7 -9 4 -9 -4 -18 0 -22 9 -8 22 32 94 58 103 21 6 21 8 5 13 -16
6 -12 13 27 56 25 27 46 50 46 51 0 2 -13 -2 -29 -7 -15 -5 -32 -9 -37 -7 -5
1 -19 -3 -31 -10 -25 -14 -43 2 -24 21 9 9 11 7 5 -8 -5 -14 6 -7 35 20 47 45
54 56 15 26 -34 -27 -53 -27 -29 -1 18 19 17 20 -3 20 -15 0 -20 4 -15 16 5
13 7 13 14 2 8 -11 10 -11 18 1 7 11 9 11 13 0 2 -7 10 -9 16 -5 9 5 7 14 -8
33 -22 28 -26 59 -10 65 7 2 6 18 -4 46 l-15 43 32 20 c29 19 24 20 -18 3 -11
-4 -15 1 -15 19 0 20 10 29 53 48 28 13 61 27 72 30 14 5 15 7 4 8 -9 1 -29
-5 -45 -13 -16 -8 -40 -17 -53 -21 l-24 -7 22 28 c12 16 54 46 94 67 72 38 57
42 -18 4 l-40 -20 19 22 c11 11 17 23 14 26 -3 3 -11 -1 -18 -10 -16 -19 -37
-20 -37 -1 0 7 5 13 11 12 15 -1 128 55 122 61 -2 2 -22 -5 -45 -16 -45 -23
-55 -26 -46 -11 4 6 -1 7 -11 3 -11 -4 -13 -8 -6 -11 7 -2 9 -8 6 -14 -3 -5
-15 5 -26 23 -19 32 -19 33 -2 46 11 8 18 16 17 18 -2 3 -3 6 -2 8 8 26 5 35
-9 30 -10 -4 -5 7 13 26 16 18 23 30 15 26 -8 -3 -26 -21 -39 -40 -13 -20 -26
-33 -29 -30 -3 2 8 23 23 47 l28 41 -28 -21 c-15 -12 -33 -22 -39 -22 -6 0 -2
7 8 15 11 8 16 15 11 15 -5 0 0 6 10 14 18 13 17 14 -8 11 -30 -4 -35 6 -12
25 13 11 14 10 9 -6 -4 -12 7 -5 27 17 19 20 43 41 54 48 19 12 19 12 1 6 -20
-6 -20 -6 0 16 10 12 13 19 7 15 -7 -4 -22 -9 -34 -11 -11 -2 -30 -7 -42 -11
-38 -11 -7 12 68 51 79 41 52 37 -44 -6 -35 -16 -66 -27 -68 -25 -8 8 89 69
131 83 38 12 39 13 6 7 -19 -3 -53 -10 -75 -14 -39 -8 -55 -1 -55 25 0 6 4 4
8 -3 6 -8 15 -3 32 20 l23 31 -39 -6 -39 -6 30 16 c17 9 24 18 18 20 -7 3 -23
-3 -35 -11 -26 -19 -50 -21 -28 -3 8 7 16 18 18 25 3 16 53 60 96 85 27 16 28
17 6 12 -14 -4 -43 -10 -65 -15 -22 -5 -47 -10 -55 -13 -8 -2 -12 -2 -8 0 5 3
8 9 8 15 0 6 -11 3 -25 -6 -14 -9 -25 -13 -25 -8 0 14 45 49 76 57 22 6 25 9
11 13 -17 3 -16 7 10 34 27 30 27 30 3 18 -14 -8 -36 -14 -48 -15 l-24 -1 22
18 c26 21 14 24 -15 5 -11 -8 -29 -17 -40 -21 -14 -5 -11 1 9 17 16 13 26 28
23 34 -8 13 8 27 48 41 26 9 27 11 7 11 -13 1 -33 -4 -45 -10 -18 -9 -16 -5 8
20 16 17 40 34 53 38 16 4 20 8 12 13 -7 4 -31 -3 -54 -16 -44 -25 -61 -30
-51 -14 3 6 1 10 -6 10 -6 0 0 9 14 21 15 11 26 23 26 27 -4 22 4 34 33 52 56
34 20 22 -48 -16 -35 -20 -64 -34 -64 -31 0 15 107 107 140 120 8 3 3 5 -12 4
-15 -1 -26 -5 -25 -9 1 -4 -17 -19 -40 -33 -24 -15 -43 -21 -43 -16 0 6 7 11
16 11 8 0 13 4 10 9 -3 5 6 12 19 15 40 10 19 25 -27 20 -23 -3 -47 -8 -52
-10 -6 -3 0 4 14 15 14 11 29 19 35 17 10 -3 35 17 35 29 0 3 -14 -2 -31 -10
-17 -9 -33 -14 -36 -11 -3 2 17 16 44 31 49 26 22 24 -31 -2 -27 -14 -28 -14
-22 3 5 14 0 12 -16 -6 -13 -14 -20 -21 -16 -15 4 7 6 14 3 17 -11 11 35 39
76 47 39 8 41 9 14 12 -16 1 -38 2 -49 2 -16 0 -15 2 5 18 27 21 19 25 -13 8
-16 -9 -19 -8 -16 2 2 7 24 23 48 36 36 19 39 23 18 23 -13 0 -33 -7 -44 -15
-29 -22 -50 -18 -21 5 14 11 34 20 45 20 12 0 23 3 26 8 2 4 -15 7 -39 7 -42
0 -43 1 -27 20 17 19 17 19 -10 2 -16 -10 -28 -14 -28 -9 0 19 30 47 61 58 32
12 32 13 8 13 -14 1 -47 -5 -72 -13 -26 -8 -45 -10 -42 -6 8 13 65 40 84 40
12 0 13 2 4 8 -13 8 81 62 107 62 7 0 10 3 7 6 -4 4 -28 -1 -54 -11 -26 -10
-67 -18 -90 -16 -24 1 -53 -4 -65 -10 -22 -12 -22 -11 -8 6 14 17 13 18 -2 12
-11 -4 -18 -2 -18 6 0 8 -4 6 -10 -3 -7 -11 -10 -11 -10 -2 0 18 42 72 51 66
5 -3 6 2 3 10 -4 10 8 22 35 38 23 13 41 27 41 31 0 5 -16 0 -36 -12 -40 -24
-69 -28 -40 -6 11 8 14 15 8 15 -9 0 -8 8 4 28 16 27 16 27 -3 6 -17 -19 -22
-20 -49 -9 -16 8 -24 14 -18 14 5 1 19 8 30 17 10 8 14 13 8 10 -6 -3 -23 -7
-39 -10 -43 -8 -15 15 43 36 26 9 39 17 30 17 -10 1 -18 6 -18 12 0 5 -5 7
-11 3 -8 -5 -7 -9 1 -14 9 -5 5 -8 -11 -8 -38 1 -72 -10 -101 -32 -36 -26 -44
-25 -18 2 23 25 26 38 8 38 -6 0 -1 11 12 25 13 14 18 25 11 25 -18 0 25 57
48 65 11 3 22 13 25 21 5 13 3 13 -15 0 -12 -8 -28 -12 -36 -9 -8 3 -13 0 -11
-7 2 -7 -4 -15 -12 -17 -13 -4 -13 -3 0 6 8 6 11 11 5 11 -5 0 1 10 15 21 21
17 22 19 3 10 -27 -14 -46 -14 -38 -1 3 5 -12 3 -35 -5 -37 -13 -40 -13 -41 3
0 10 -3 12 -6 5 -2 -7 -9 -13 -15 -13 -7 0 -6 5 2 14 6 8 17 13 24 10 8 -3 16
3 18 14 4 13 21 23 52 31 46 11 67 26 24 16 -31 -7 -79 -16 -104 -20 -12 -2
-32 -8 -45 -15 -24 -11 -24 -11 1 9 14 11 31 19 38 16 8 -3 10 0 6 7 -4 6 -3
9 2 6 5 -3 34 7 64 23 30 15 52 28 49 29 -12 0 -76 -23 -137 -52 -35 -16 -66
-27 -69 -25 -6 7 59 42 72 39 6 -1 2 4 -8 12 -16 13 -16 14 5 30 l23 16 -30
-1 c-51 -2 -52 2 -5 16 l45 14 -50 -3 c-27 -2 -63 -9 -79 -15 -16 -6 -30 -10
-32 -8 -2 2 10 18 26 36 35 38 38 48 9 27 -12 -8 -26 -13 -33 -12 -6 2 -7 1
-3 -2 8 -4 -22 -31 -35 -32 -3 0 0 14 8 30 9 17 19 30 22 30 4 0 13 9 20 21
12 19 11 20 -9 14 -15 -5 -19 -4 -14 5 4 7 -5 5 -24 -4 -39 -21 -81 -37 -81
-31 0 2 19 16 43 30 38 24 36 27 -8 9 -8 -3 -15 -1 -15 4 0 6 8 13 19 17 10 3
27 15 37 27 11 12 13 18 4 13 -14 -9 -77 -19 -69 -11 2 2 31 20 64 41 33 20
49 33 35 29 -14 -4 -32 -9 -40 -11 -10 -3 -8 1 4 11 11 9 15 16 9 16 -7 0 -14
-4 -17 -9 -3 -5 -20 -14 -36 -20 -23 -7 -29 -7 -24 1 5 7 0 9 -15 5 -33 -8
-21 13 28 51 23 17 39 32 34 32 -4 0 -19 -9 -33 -20 -14 -11 -29 -20 -34 -20
-6 0 -23 -12 -38 -27 -15 -15 -28 -22 -28 -16 0 12 56 63 68 63 4 0 13 10 21
23 13 21 13 22 -6 4 -11 -9 -22 -15 -24 -12 -3 2 -20 -9 -38 -25 -45 -42 -52
-38 -10 6 18 19 49 42 68 50 19 8 32 17 29 19 -3 3 -18 0 -34 -6 -66 -27 -128
-47 -113 -36 9 7 14 17 12 24 -2 6 5 14 16 18 12 3 21 12 21 18 0 6 10 20 23
32 25 22 3 10 -27 -15 -10 -8 -29 -15 -42 -15 -19 -1 -21 2 -11 14 10 12 9 13
-3 6 -8 -4 -23 -15 -33 -23 -9 -8 -20 -12 -24 -9 -3 4 -2 7 4 7 6 0 19 12 28
28 l18 27 -27 -24 c-14 -14 -29 -21 -33 -18 -3 4 -15 -1 -26 -10 -19 -17 -19
-17 -16 2 3 13 14 21 34 24 30 4 30 4 5 11 l-25 7 28 11 c15 6 27 15 27 20 0
14 -49 4 -92 -19 -14 -7 -16 -5 -11 9 3 9 11 22 17 27 20 18 49 55 44 55 -3 0
-17 -11 -32 -25 -15 -14 -32 -25 -39 -25 -7 0 -1 9 13 20 21 17 22 19 5 14
-17 -5 -16 -2 5 17 19 17 20 21 6 16 -14 -6 -17 -4 -12 10 6 16 6 16 -12 0
-22 -20 -36 -22 -26 -4 4 6 -2 4 -13 -5 -11 -10 -24 -18 -29 -18 -5 0 -2 4 6
10 8 5 11 12 7 16 -3 4 -14 1 -22 -6 -14 -12 -16 -10 -10 16 6 29 6 29 -9 -3
-8 -19 -23 -33 -32 -33 -15 0 -16 2 -2 18 8 9 18 25 21 35 4 9 17 22 29 27 18
6 11 8 -25 5 -27 -1 -54 -8 -60 -14 -20 -20 -31 -11 -12 9 10 12 24 19 30 16
6 -2 17 5 23 15 7 10 20 19 30 19 14 0 14 2 3 9 -10 7 -12 14 -5 23 5 8 -2 1
-16 -14 -14 -16 -30 -28 -36 -28 -6 0 -34 -18 -63 -41 -28 -22 -51 -36 -51
-31 0 5 7 12 14 15 8 3 23 21 32 39 16 32 16 33 -2 16 -11 -9 -30 -18 -44 -21
l-25 -4 25 -2 25 -1 -29 -15 c-36 -19 -42 -19 -26 0 7 8 9 15 4 15 -5 0 0 7
10 15 18 14 18 15 2 15 -9 0 -14 4 -11 10 3 6 -1 7 -9 4 -23 -9 -19 13 4 26
11 6 19 14 17 19 -1 5 9 18 23 30 21 17 22 20 5 14 -11 -3 -24 -8 -29 -11 -5
-3 -22 -6 -38 -7 l-29 -3 23 27 c20 23 19 22 -10 -3 -17 -17 -32 -26 -32 -22
0 5 -7 2 -17 -5 -12 -10 -17 -11 -20 -2 -3 8 -11 8 -30 -2 -15 -8 -31 -11 -36
-8 -10 6 -5 11 40 40 17 12 17 12 -2 6 -20 -6 -20 -6 0 18 45 52 47 62 5 24
-24 -22 -38 -32 -30 -22 25 33 -3 39 -40 8 -19 -16 -32 -32 -29 -35 8 -9 40 4
34 14 -3 4 3 14 13 21 15 13 16 12 3 -3 -7 -10 -10 -18 -5 -18 12 -1 -36 -40
-48 -40 -5 0 -6 5 -3 10 9 14 -8 13 -23 -2 -7 -7 -12 -8 -12 -4 0 4 9 15 21
24 24 20 17 54 -9 45 -17 -5 18 31 54 55 17 11 16 11 -4 2 -33 -16 -62 -20
-62 -10 0 13 29 40 43 40 8 0 7 4 -2 9 -11 7 -10 15 8 45 13 20 20 36 17 36
-3 0 -18 -19 -32 -42 -14 -24 -33 -49 -42 -55 -10 -8 -11 -13 -4 -13 10 0 10
-5 2 -20 -6 -11 -16 -20 -22 -20 -7 0 -6 5 2 15 12 15 6 35 -12 35 -6 0 -26
-14 -45 -31 -19 -16 -37 -28 -40 -25 -8 8 25 56 38 56 6 0 8 3 5 8 -2 4 13 6
35 5 21 -1 41 2 44 7 3 6 -1 7 -9 4 -22 -8 -20 12 2 26 15 10 15 11 -3 5 -11
-4 -36 -12 -55 -17 -19 -6 -44 -17 -55 -26 -11 -9 -14 -10 -7 -2 6 8 12 21 11
30 0 10 -2 11 -6 3 -2 -7 -11 -13 -19 -13 -8 0 -24 -11 -36 -25 -12 -14 -28
-25 -37 -25 -11 0 -10 4 5 16 16 13 16 15 2 10 -37 -11 -16 12 30 33 42 20 24
25 -20 6 -23 -9 -23 5 -2 53 10 20 18 43 20 50 1 7 10 25 19 40 16 26 16 27
-2 6 -10 -12 -26 -36 -36 -54 -11 -21 -22 -30 -32 -26 -8 3 -14 0 -12 -6 1 -6
-13 -21 -31 -34 -18 -12 -33 -26 -33 -31 0 -4 -3 -10 -6 -13 -4 -3 -3 1 1 8 9
15 1 15 -25 2 -37 -21 -18 -1 31 31 63 41 65 50 3 13 l-47 -27 38 54 c24 33
30 46 16 34 -12 -11 -37 -42 -55 -68 -19 -28 -36 -44 -40 -38 -3 6 -2 11 4 11
6 0 8 7 5 15 -4 8 -11 12 -16 9 -6 -4 -5 3 1 15 14 25 22 28 15 4 -3 -10 4 -1
15 19 12 20 25 40 31 43 5 3 10 10 10 15 0 10 -27 7 -37 -5 -4 -4 -2 -5 6 0 9
5 12 3 9 -6 -3 -8 -10 -14 -16 -14 -12 0 -73 -86 -67 -95 2 -4 -3 -7 -11 -7
-11 0 -14 7 -9 26 3 14 2 21 -2 15 -9 -12 -43 -26 -43 -18 0 22 35 64 61 73
18 6 30 14 26 17 -8 8 -104 -45 -131 -73 -23 -25 -46 -32 -26 -8 6 8 8 20 4
26 -4 7 -3 9 3 6 6 -4 21 6 34 21 l24 27 -29 -25 -29 -25 7 28 c4 17 3 26 -2
23 -5 -3 -12 -20 -16 -37 -6 -32 -47 -79 -68 -79 -7 0 4 14 22 30 35 31 32 43
-4 13 -20 -17 -20 -17 -6 2 8 11 22 30 33 41 18 22 18 22 -11 19 -16 -1 -33
-4 -38 -7 -5 -3 -26 -11 -47 -16 l-38 -11 36 47 c31 39 26 35 -24 -17 -34 -35
-65 -60 -69 -57 -4 4 4 16 18 27 20 15 21 18 5 13 -28 -10 -46 -25 -40 -34 3
-4 -8 -15 -23 -24 l-27 -17 23 20 22 20 -22 7 -22 7 24 19 c13 11 32 17 41 15
10 -3 20 1 23 8 3 10 -4 10 -32 3 -20 -5 -45 -10 -54 -11 -10 -1 -18 -5 -18
-9 0 -12 -59 -40 -70 -33 -6 4 -13 -1 -16 -9 -3 -9 -11 -16 -16 -16 -7 0 -6 5
1 13 6 8 8 17 4 20 -3 4 0 8 8 9 30 3 35 4 54 16 17 10 15 11 -14 5 -28 -5
-33 -3 -26 8 5 8 -3 4 -17 -8 -13 -13 -31 -23 -40 -23 -9 0 -21 -7 -28 -15 -7
-9 -17 -14 -22 -13 -11 4 -11 23 0 23 4 0 27 16 51 35 24 19 51 34 60 33 9 -1
11 0 3 3 -6 3 -9 11 -5 17 4 7 -4 4 -17 -6 -14 -9 -36 -23 -50 -29 -14 -7 -41
-25 -61 -40 -37 -28 -63 -38 -41 -16 27 27 -1 35 -32 9 -9 -8 -20 -10 -24 -6
-4 4 22 35 58 68 36 34 54 53 40 44 -14 -10 -35 -22 -47 -29 -13 -6 -23 -15
-23 -19 0 -7 -36 -17 -83 -24 -31 -4 -108 -33 -124 -46 -7 -6 -13 -8 -13 -3 0
5 26 26 58 48 31 21 49 36 39 32 -10 -3 -25 -6 -33 -6 -9 0 -13 -4 -9 -9 7
-12 -7 -21 -39 -27 -34 -6 -29 31 9 63 26 22 27 23 5 13 -14 -7 -38 -28 -54
-47 -15 -19 -31 -32 -34 -28 -3 3 5 17 19 31 l24 26 -27 -13 c-16 -7 -28 -17
-28 -24 0 -6 -13 -21 -30 -33 -38 -28 -40 -16 -2 16 l27 23 -30 -16 c-16 -8
-45 -27 -64 -42 -27 -22 -32 -24 -23 -8 6 11 25 34 43 50 18 17 29 24 24 16
-5 -10 -4 -12 4 -7 6 4 9 11 6 15 -5 10 30 43 70 65 17 10 21 14 10 10 -11 -4
-28 -7 -37 -8 -9 0 -15 -3 -13 -6 2 -4 -12 -14 -32 -24 -19 -9 -33 -20 -29
-23 8 -8 -44 -63 -58 -63 -6 1 5 14 24 30 19 17 29 30 23 30 -6 0 -16 -7 -23
-15 -7 -8 -17 -15 -23 -15 -6 0 0 12 14 27 l24 27 -31 -22 c-17 -11 -37 -28
-44 -37 -7 -8 -17 -15 -23 -15 -6 0 2 15 19 32 16 18 19 24 7 14 -13 -11 -23
-16 -23 -11 0 4 -7 2 -15 -5 -21 -18 -19 -2 10 53 l24 48 -41 -40 c-37 -37
-45 -43 -64 -40 -4 0 -14 -11 -24 -26 -14 -21 -60 -55 -75 -55 -8 0 4 50 18
79 13 27 14 31 2 21 -8 -7 -15 -19 -15 -26 0 -8 -8 -22 -17 -31 -10 -10 -18
-24 -18 -32 0 -7 -11 -18 -25 -22 l-25 -9 25 20 c14 11 21 20 16 20 -5 0 -1
10 10 21 l19 22 -34 -18 c-33 -16 -34 -16 -27 1 6 18 5 18 -8 2 -7 -10 -18
-18 -24 -18 -6 0 -13 -6 -16 -12 -4 -7 -4 -3 -2 10 2 12 1 22 -3 22 -5 0 -13
-10 -19 -22 -7 -15 -11 -18 -11 -7 -1 8 4 20 10 26 6 6 16 22 23 34 6 13 28
32 49 43 20 11 35 21 33 23 -7 7 -67 -26 -133 -74 -63 -44 -76 -46 -48 -7 8
12 12 24 9 27 -4 3 4 20 17 38 13 18 16 28 8 23 -7 -5 -18 -9 -24 -9 -5 0 -10
-4 -10 -10 -2 -26 -28 -84 -45 -100 -22 -20 -27 -40 -7 -29 7 4 9 3 4 -2 -5
-5 -12 -9 -16 -9 -4 0 -27 -16 -51 -35 -25 -19 -39 -27 -32 -18 8 10 11 22 7
28 -8 12 22 50 38 50 6 0 0 -12 -14 -27 -13 -16 -5 -10 19 12 40 38 58 61 26
35 -8 -8 -26 -15 -40 -16 -23 -3 -24 -2 -6 21 9 13 36 36 60 51 23 15 42 29
42 31 0 11 -71 -35 -107 -70 -44 -42 -56 -41 -26 3 16 22 16 23 -1 17 -14 -6
-17 -3 -12 8 3 10 2 13 -5 10 -5 -4 -8 -12 -6 -18 2 -7 -7 -20 -21 -31 -14
-11 -19 -21 -13 -25 6 -4 7 -12 1 -21 -8 -13 -10 -12 -10 3 0 23 -22 22 -38
-3 -7 -11 -17 -20 -23 -20 -7 0 -5 10 5 25 19 29 20 39 4 29 -8 -5 -9 -1 -4
12 4 12 -3 7 -18 -11 -14 -16 -25 -35 -26 -41 0 -15 -30 -40 -30 -26 0 6 4 13
9 16 5 3 7 14 4 24 -2 10 3 38 11 62 18 51 20 73 5 48 -5 -10 -10 -20 -11 -22
-16 -80 -27 -111 -39 -111 -8 0 -20 -7 -27 -15 -10 -13 -11 -11 -8 13 8 48 18
70 40 89 20 17 20 18 1 11 -11 -4 -24 -12 -30 -18 -10 -12 -45 -28 -45 -20 0
2 7 11 16 19 14 15 14 16 -1 16 -15 0 -34 -35 -30 -55 1 -5 0 -7 -2 -2 -3 4
-9 5 -14 1 -5 -3 -9 -1 -9 5 0 5 5 13 10 16 6 3 10 11 10 17 0 6 -11 1 -25
-12 -14 -13 -25 -20 -25 -16 0 5 -7 3 -15 -4 -13 -11 -15 -9 -12 11 2 12 10
25 17 27 7 3 10 0 6 -6 -3 -6 -2 -13 2 -16 5 -3 14 6 20 20 8 15 23 27 42 31
17 3 33 10 36 15 4 6 -3 7 -17 3 -61 -17 -62 -17 -54 -4 4 8 -3 3 -15 -11 -12
-14 -19 -19 -15 -12 11 22 -7 13 -71 -38 -35 -27 -67 -50 -71 -50 -5 0 -1 6 7
13 8 7 16 21 18 31 2 10 14 36 28 57 35 56 24 48 -25 -17 -23 -30 -36 -52 -30
-48 8 5 9 3 5 -5 -5 -7 -11 -10 -14 -7 -3 4 -16 -1 -29 -9 -23 -16 -23 -15
-17 12 8 34 48 109 77 143 11 14 -2 3 -29 -25 -27 -27 -55 -48 -62 -47 -7 2
-26 -10 -42 -26 -39 -39 -110 -77 -110 -58 0 18 20 33 66 50 21 8 31 15 22 15
-9 1 -29 -4 -44 -10 -27 -10 -27 -9 -12 8 9 10 16 22 15 28 -1 5 16 20 38 32
22 12 36 23 31 23 -17 0 -96 -51 -91 -59 2 -5 -3 -15 -13 -22 -16 -13 -16 -13
-2 5 14 18 13 19 -2 13 -24 -9 -23 0 8 40 29 38 28 55 -1 23 -10 -11 -24 -20
-32 -20 -7 0 -13 -4 -13 -8 0 -4 -9 -8 -21 -8 -20 0 -20 1 3 19 12 11 23 24
23 29 0 6 18 25 40 44 22 18 38 34 35 34 -3 0 -32 -22 -65 -50z m-391 -97
c-25 -18 -28 -9 -7 23 16 24 18 26 22 9 2 -10 -5 -25 -15 -32z m171 -13 c-8
-16 -29 -33 -47 -39 l-33 -12 40 41 c27 28 33 39 20 34 -11 -4 -26 -14 -34
-23 -11 -13 -12 -13 -9 -1 6 19 46 40 64 33 11 -4 11 -10 -1 -33z m215 7 c-17
-28 -71 -67 -77 -55 -1 1 -14 -8 -29 -22 l-27 -25 24 44 c24 43 62 81 82 81 6
0 -4 -16 -23 -35 -18 -19 -31 -37 -29 -40 3 -2 22 16 43 40 44 53 64 59 36 12z
m-778 -37 c-18 -17 -38 -30 -45 -30 -6 1 4 14 23 30 45 39 65 38 22 0z m478
20 c0 -5 -16 -27 -35 -47 -19 -20 -35 -31 -35 -24 0 11 58 81 67 81 2 0 3 -4
3 -10z m480 3 c0 -9 -50 -93 -55 -93 -11 0 -4 30 11 45 9 9 14 19 10 22 -3 3
-1 12 5 20 12 14 29 18 29 6z m-600 -18 c-7 -8 -17 -15 -22 -15 -6 0 -5 7 2
15 7 8 17 15 22 15 6 0 5 -7 -2 -15z m1400 10 c0 -2 -10 -10 -22 -16 -21 -11
-22 -11 -9 4 13 16 31 23 31 12z m-984 -33 c-17 -16 -18 -16 -5 5 7 12 15 20
18 17 3 -2 -3 -12 -13 -22z m1219 -2 c-10 -11 -20 -18 -23 -15 -3 3 3 14 13
25 10 11 20 18 23 15 3 -3 -3 -14 -13 -25z m-1684 -9 c-6 -10 -22 -26 -37 -36
-29 -19 -25 -6 9 33 25 27 42 29 28 3z m1800 -5 c-21 -22 -67 -34 -55 -14 3 5
9 6 13 3 5 -2 16 4 26 15 10 11 23 20 28 20 6 0 0 -11 -12 -24z m-1571 11 c0
-2 -16 -19 -37 -38 -37 -35 -37 -23 0 19 18 19 37 29 37 19z m570 -12 c-7 -9
-15 -13 -17 -11 -7 7 7 26 19 26 6 0 6 -6 -2 -15z m159 -15 c-13 -34 -26 -40
-24 -9 1 16 19 38 32 39 1 0 -3 -13 -8 -30z m461 21 c0 -13 -29 -35 -37 -28
-7 8 15 37 28 37 5 0 9 -4 9 -9z m766 0 c21 17 26 6 8 -19 -16 -23 -41 -31
-28 -9 5 8 2 8 -9 -2 -20 -16 -22 -8 -5 22 7 14 13 17 16 9 3 -10 7 -10 18 -1z
m-2261 -9 c-6 -4 -26 -21 -45 -37 l-35 -30 34 38 c19 20 39 37 45 37 6 0 6 -3
1 -8z m1151 -20 c-18 -16 -18 -16 -6 6 6 13 14 21 18 18 3 -4 -2 -14 -12 -24z
m1694 13 c-7 -9 -15 -13 -17 -11 -7 7 7 26 19 26 6 0 6 -6 -2 -15z m-1897 -10
c-3 -9 -8 -14 -10 -11 -3 3 -2 9 2 15 9 16 15 13 8 -4z m1257 11 c0 -2 -11
-11 -25 -20 -14 -9 -25 -12 -25 -6 0 6 10 15 23 20 27 11 27 11 27 6z m605 -6
c-3 -5 -14 -10 -23 -10 -15 0 -15 2 -2 10 20 13 33 13 25 0z m-2945 -4 c0 -2
-13 -20 -30 -41 -36 -46 -40 -36 -4 12 22 30 34 40 34 29z m10 -36 c-7 -17
-15 -28 -18 -26 -2 3 1 19 8 36 7 17 15 28 18 26 2 -3 -1 -19 -8 -36z m664 16
c-3 -9 -10 -16 -15 -16 -6 0 -5 9 1 21 13 24 24 20 14 -5z m1046 19 c0 -2 -10
-10 -22 -16 -21 -11 -22 -11 -9 4 13 16 31 23 31 12z m1658 -27 c-14 -42 -26
-54 -62 -62 -27 -7 -28 -6 -15 11 13 17 82 83 86 83 1 0 -3 -15 -9 -32z
m-3510 -9 c-5 -15 -18 -35 -29 -45 -18 -16 -19 -16 -19 1 0 18 -1 18 -16 -1
-14 -18 -15 -18 -4 4 6 12 15 20 20 17 10 -6 33 31 26 43 -2 4 4 8 13 8 16 0
17 -4 9 -27z m412 10 c-7 -11 -14 -18 -17 -15 -3 3 0 12 7 21 18 21 23 19 10
-6z m1126 -7 c-18 -16 -18 -16 -6 6 6 13 14 21 18 18 3 -4 -2 -14 -12 -24z
m1687 9 c-3 -11 -13 -27 -24 -37 -17 -16 -18 -15 -14 6 3 17 28 47 42 50 0 0
-1 -9 -4 -19z m-2762 -14 c-10 -9 -11 -8 -5 6 3 10 9 15 12 12 3 -3 0 -11 -7
-18z m729 19 c0 -3 -4 -8 -10 -11 -5 -3 -10 -1 -10 4 0 6 5 11 10 11 6 0 10
-2 10 -4z m740 -11 c-7 -9 -15 -13 -17 -11 -7 7 7 26 19 26 6 0 6 -6 -2 -15z
m1100 10 c0 -2 -10 -10 -22 -16 -21 -11 -22 -11 -9 4 13 16 31 23 31 12z
m-3223 -26 c1 -12 -4 -28 -12 -35 -21 -21 -27 -17 -13 9 7 12 13 25 14 30 3
15 4 17 7 17 1 0 3 -10 4 -21z m2749 12 c-4 -5 0 -11 6 -13 8 -3 4 -9 -10 -17
-14 -7 -22 -8 -22 -1 0 5 5 10 10 10 6 0 9 3 9 8 -2 12 1 22 7 22 3 0 3 -4 0
-9z m314 -6 c-7 -8 -17 -15 -22 -15 -6 0 -5 7 2 15 7 8 17 15 22 15 6 0 5 -7
-2 -15z m-1586 -10 c-6 -16 -24 -21 -24 -7 0 11 11 22 21 22 5 0 6 -7 3 -15z
m199 -5 c-5 -19 -33 -49 -33 -36 0 7 31 56 35 56 2 0 1 -9 -2 -20z m887 16 c0
-2 -8 -10 -17 -17 -16 -13 -17 -12 -4 4 13 16 21 21 21 13z m656 -22 c-11 -7
-22 -11 -25 -8 -3 3 3 12 13 20 11 7 22 11 25 8 3 -3 -3 -12 -13 -20z m-2766
12 c0 -3 -4 -8 -10 -11 -5 -3 -10 -1 -10 4 0 6 5 11 10 11 6 0 10 -2 10 -4z
m1150 -11 c-7 -9 -15 -13 -17 -11 -7 7 7 26 19 26 6 0 6 -6 -2 -15z m1836 -11
c-30 -21 -44 -16 -17 7 13 11 27 17 30 13 3 -3 -3 -12 -13 -20z m-2198 -10
c-7 -15 -14 -21 -16 -15 -2 7 2 18 8 26 18 22 21 18 8 -11z m1643 -1 c-12 -20
-14 -14 -5 12 4 9 9 14 11 11 3 -2 0 -13 -6 -23z m-2831 13 c0 -2 -8 -10 -17
-17 -16 -13 -17 -12 -4 4 13 16 21 21 21 13z m2940 -16 c0 -5 -5 -10 -11 -10
-5 0 -7 5 -4 10 3 6 8 10 11 10 2 0 4 -4 4 -10z m-2580 -10 c0 -5 -5 -10 -11
-10 -5 0 -7 5 -4 10 3 6 8 10 11 10 2 0 4 -4 4 -10z m1173 -15 c-3 -9 -8 -14
-10 -11 -3 3 -2 9 2 15 9 16 15 13 8 -4z m1247 12 c0 -2 -10 -12 -22 -23 l-23
-19 19 23 c18 21 26 27 26 19z m605 -6 c-9 -8 -36 -10 -30 -2 2 4 11 8 20 8 8
0 13 -3 10 -6z m151 0 c-3 -5 -18 -11 -33 -14 -26 -5 -26 -4 -8 9 21 15 49 19
41 5z m-3546 -5 c0 -2 -8 -10 -17 -17 -16 -13 -17 -12 -4 4 13 16 21 21 21 13z
m-210 -9 c0 -2 -10 -12 -22 -23 l-23 -19 19 23 c18 21 26 27 26 19z m3840 -16
c0 -5 -7 -12 -16 -15 -14 -5 -15 -4 -4 9 14 17 20 19 20 6z m210 6 c0 -2 -10
-12 -22 -23 l-23 -19 19 23 c18 21 26 27 26 19z m-3819 -34 c-12 -20 -14 -14
-5 12 4 9 9 14 11 11 3 -2 0 -13 -6 -23z m3649 23 c0 -2 -7 -7 -16 -10 -8 -3
-12 -2 -9 4 6 10 25 14 25 6z m184 -41 c-4 -8 -13 -15 -21 -15 -13 0 -13 3 -3
15 7 8 16 15 21 15 5 0 6 -7 3 -15z m267 -91 c-18 -8 -36 -13 -39 -10 -6 7 37
25 58 25 8 -1 0 -7 -19 -15z m-156 -23 c-3 -6 -11 -11 -17 -11 -6 0 -6 6 2 15
14 17 26 13 15 -4z m155 5 c0 -3 -15 -14 -32 -26 l-33 -22 30 26 c31 27 35 29
35 22z m200 -115 c-13 -26 -36 -40 -27 -18 9 25 -11 21 -37 -8 -25 -27 -47
-35 -26 -10 7 8 9 15 4 16 -12 1 68 37 84 38 10 1 10 -4 2 -18z m-4641 -33
c-17 -34 -19 -34 -19 -5 0 18 5 27 15 27 13 0 14 -4 4 -22z m61 8 c0 -8 -4
-18 -10 -21 -5 -3 -10 3 -10 14 0 12 5 21 10 21 6 0 10 -6 10 -14z m4690 -36
c0 -5 -8 -10 -17 -10 -15 0 -16 2 -3 10 19 12 20 12 20 0z m-41 -3 c-2 -1 -13
-9 -24 -17 -19 -14 -19 -14 -6 3 7 9 18 17 24 17 6 0 8 -1 6 -3z m-4659 -17
c0 -5 -5 -10 -11 -10 -5 0 -7 5 -4 10 3 6 8 10 11 10 2 0 4 -4 4 -10z m4685
-20 c3 -6 -1 -7 -9 -4 -18 7 -21 14 -7 14 6 0 13 -4 16 -10z m-4718 -32 c-3
-7 -5 -2 -5 12 0 14 2 19 5 13 2 -7 2 -19 0 -25z m-17 -18 c0 -16 -4 -30 -10
-30 -11 0 -14 43 -3 53 11 12 13 8 13 -23z m30 -40 c0 -5 -5 -10 -11 -10 -5 0
-7 5 -4 10 3 6 8 10 11 10 2 0 4 -4 4 -10z m4895 -20 c-3 -5 -12 -10 -18 -10
-7 0 -6 4 3 10 19 12 23 12 15 0z m-4928 -22 c-3 -8 -6 -5 -6 6 -1 11 2 17 5
13 3 -3 4 -12 1 -19z m4978 -28 c-7 -12 -65 -43 -65 -35 0 5 61 45 68 45 2 0
0 -5 -3 -10z m-4934 -133 c-10 -9 -11 -8 -5 6 3 10 9 15 12 12 3 -3 0 -11 -7
-18z m19 -48 c-7 -11 -14 -18 -17 -15 -3 3 0 12 7 21 18 21 23 19 10 -6z
m4985 -29 c-3 -5 -11 -10 -16 -10 -6 0 -7 5 -4 10 3 6 11 10 16 10 6 0 7 -4 4
-10z m95 -4 c0 -3 -4 -8 -10 -11 -5 -3 -10 -1 -10 4 0 6 5 11 10 11 6 0 10 -2
10 -4z m-5125 -63 c-5 -15 -7 -35 -6 -45 1 -9 -2 -19 -8 -22 -11 -7 -8 75 4
94 12 19 18 3 10 -27z m5125 -37 c0 -2 -8 -10 -17 -17 -16 -13 -17 -12 -4 4
13 16 21 21 21 13z m121 -30 c-6 -7 -7 -17 -3 -21 4 -5 1 -5 -6 -1 -8 5 -22 0
-35 -11 l-22 -18 20 24 20 24 -22 -7 c-13 -4 -23 -5 -23 -1 0 7 35 20 61 22
16 2 18 -1 10 -11z m-5258 -45 c-10 -7 -43 -58 -43 -66 0 -4 5 -3 10 0 17 10
11 -11 -10 -36 -10 -13 -19 -19 -20 -12 0 6 5 15 10 18 6 3 10 11 10 16 0 6
-5 7 -10 4 -7 -4 -9 3 -4 22 7 30 57 86 63 70 2 -5 -1 -12 -6 -16z m7 -81 c0
-5 -5 -10 -11 -10 -5 0 -7 5 -4 10 3 6 8 10 11 10 2 0 4 -4 4 -10z m5245 -20
c-3 -5 -11 -10 -16 -10 -6 0 -7 5 -4 10 3 6 11 10 16 10 6 0 7 -4 4 -10z m117
-12 c-6 -6 -15 -8 -19 -4 -4 4 -1 11 7 16 19 12 27 3 12 -12z m-5368 -13 c-6
-16 -24 -21 -24 -7 0 11 11 22 21 22 5 0 6 -7 3 -15z m5316 -30 c-7 -8 -17
-15 -22 -15 -6 0 -5 7 2 15 7 8 17 15 22 15 6 0 5 -7 -2 -15z m45 -15 c-16
-16 -31 -27 -34 -24 -5 5 48 54 58 54 3 0 -8 -13 -24 -30z m-5368 -27 c-3 -10
-5 -4 -5 12 0 17 2 24 5 18 2 -7 2 -21 0 -30z m30 21 c-3 -3 -1 -17 4 -31 6
-16 6 -31 -1 -41 -8 -15 -9 -15 -10 3 -1 11 -3 32 -5 48 -2 15 1 27 7 27 6 0
9 -3 5 -6z m2403 -68 c0 -3 -4 -8 -10 -11 -5 -3 -10 -1 -10 4 0 6 5 11 10 11
6 0 10 -2 10 -4z m120 -26 c0 -16 -4 -30 -10 -30 -5 0 -10 14 -10 30 0 17 5
30 10 30 6 0 10 -13 10 -30z m120 -22 c0 -23 -3 -29 -11 -21 -6 6 -8 20 -4 32
9 30 15 26 15 -11z m-368 -84 c-2 -17 1 -35 7 -38 6 -4 11 -18 11 -32 0 -39
18 -28 22 14 4 37 4 37 16 12 11 -23 12 -20 7 23 -4 37 -2 47 10 47 10 0 15
10 15 27 0 14 3 23 7 19 4 -4 7 -37 7 -74 -1 -45 0 -52 3 -20 4 45 31 118 34
91 2 -18 4 -24 19 -58 7 -16 20 -51 30 -78 19 -52 36 -76 27 -37 -20 85 -28
160 -19 176 8 15 13 11 31 -27 12 -24 19 -34 17 -21 -2 12 0 22 5 22 19 0 20
-30 4 -79 -9 -28 -15 -59 -13 -68 3 -11 10 2 19 32 l15 50 23 -71 c12 -39 27
-77 31 -84 14 -23 23 -4 10 20 -10 18 -8 24 6 35 10 7 23 28 30 46 l11 34 7
-32 c4 -18 12 -33 18 -33 6 0 8 6 5 14 -14 37 -19 89 -8 82 6 -4 11 -17 12
-29 0 -17 4 -13 13 13 l13 35 7 -40 c20 -110 46 -151 46 -72 0 23 5 49 10 57
8 12 10 11 10 -7 0 -13 5 -23 10 -23 6 0 10 25 10 56 0 34 4 53 10 49 6 -3 10
-23 10 -43 0 -48 18 -112 31 -112 6 0 8 4 5 8 -10 16 -15 117 -7 130 10 17 41
-33 60 -98 7 -25 17 -50 23 -57 5 -6 9 -20 8 -30 -4 -36 0 -83 8 -83 4 0 7 37
7 83 0 69 4 89 25 126 l25 44 5 -51 c6 -61 20 -80 20 -29 0 33 3 37 25 37 19
0 23 4 19 18 -5 14 -4 15 5 2 6 -8 11 -25 11 -37 0 -25 15 -31 24 -10 3 6 3
-4 1 -23 -14 -116 -16 -150 -7 -150 5 0 13 25 17 56 5 46 9 53 21 43 11 -9 14
-7 15 12 0 21 2 20 12 -8 7 -17 15 -35 20 -39 4 -4 7 -17 7 -28 0 -12 5 -28
11 -36 8 -11 9 -6 7 23 -3 25 0 37 9 37 7 0 13 8 13 18 0 9 5 24 11 32 7 11 9
0 4 -41 -5 -44 -3 -58 8 -62 8 -3 17 -24 20 -47 3 -23 11 -48 18 -54 9 -8 10
-5 5 14 -12 50 -19 190 -9 190 6 0 13 -35 17 -77 10 -115 32 -210 55 -235 25
-26 27 -14 4 38 -18 43 -19 156 -2 183 8 13 9 10 6 -12 -3 -20 -1 -27 8 -23
17 6 27 -68 14 -102 -8 -20 -7 -23 6 -18 13 4 14 2 5 -14 -8 -16 -8 -20 4 -20
8 0 18 -9 21 -20 7 -22 25 -27 25 -7 0 6 -4 26 -9 43 -9 32 1 64 21 64 9 0 9
-3 0 -12 -14 -14 -16 -28 -4 -28 5 0 14 10 21 23 11 22 11 22 6 -3 -8 -32 -12
-58 -24 -145 -5 -38 -12 -78 -16 -87 -4 -10 -3 -18 3 -18 5 0 13 12 16 26 4
15 21 50 37 78 25 42 29 46 25 21 -11 -56 -16 -125 -8 -125 4 1 16 15 27 32
35 55 43 41 12 -21 -16 -33 -27 -65 -24 -73 3 -7 10 2 18 21 11 30 13 32 20
15 6 -16 8 -14 15 14 10 49 28 24 27 -38 -1 -46 1 -49 13 -31 8 10 11 26 8 34
-3 8 -1 18 5 22 6 3 11 -2 11 -12 0 -15 2 -16 10 -3 15 24 12 -5 -5 -36 -8
-16 -15 -37 -15 -47 0 -10 -15 -37 -34 -60 -41 -51 -70 -107 -56 -107 5 0 10
4 10 9 0 11 82 122 87 117 2 -2 -1 -15 -6 -30 -13 -34 3 -35 25 -1 9 14 20 25
25 25 19 0 8 -29 -36 -95 -43 -66 -72 -131 -62 -141 2 -3 20 28 40 68 34 72
75 133 63 96 -3 -11 0 -18 8 -18 10 0 7 -19 -11 -81 -21 -76 -30 -140 -17
-127 3 4 12 39 21 79 8 40 21 87 28 104 12 27 13 28 14 7 1 -13 -3 -31 -8 -40
-13 -27 -23 -122 -12 -122 5 0 13 9 16 21 4 11 9 18 11 16 3 -3 -2 -21 -10
-40 -10 -24 -11 -37 -4 -39 8 -3 7 -10 -1 -25 -14 -27 -15 -56 -2 -34 7 11 10
7 13 -14 4 -37 24 -43 32 -9 4 14 9 24 12 21 4 -4 -9 -66 -39 -172 -6 -22 -17
-53 -25 -69 -18 -38 -28 -206 -12 -206 8 0 9 10 5 29 -4 18 -1 34 7 42 7 8 31
49 53 93 30 59 41 73 43 56 2 -12 -6 -43 -17 -70 -11 -26 -22 -63 -23 -81 -1
-24 -16 -50 -49 -89 -48 -57 -75 -100 -62 -100 4 1 26 26 48 56 22 31 41 51
43 44 3 -8 8 -7 19 2 29 24 4 -32 -52 -117 -44 -66 -85 -144 -85 -161 0 -14
20 0 25 19 9 29 78 147 87 147 3 0 4 -9 1 -20 -3 -11 -1 -20 5 -20 6 0 13 18
17 41 5 28 10 38 17 31 17 -17 -18 -89 -73 -151 -48 -53 -85 -109 -77 -116 2
-2 26 23 53 56 34 41 51 56 53 45 5 -22 22 -10 22 15 0 11 4 17 10 14 6 -4 4
-20 -6 -43 -34 -77 -61 -163 -54 -167 4 -3 15 11 24 30 9 19 21 37 26 40 17
11 3 -45 -17 -68 -27 -29 -46 -67 -34 -67 5 0 12 6 15 13 3 6 4 0 2 -15 -1
-15 1 -29 7 -31 15 -5 -67 -142 -118 -199 -25 -28 -45 -56 -45 -64 0 -21 4
-18 40 32 43 61 58 45 25 -27 -13 -31 -27 -71 -30 -90 l-5 -34 13 28 c7 15 16
25 19 21 4 -3 14 6 24 20 9 15 18 25 20 23 9 -9 -30 -84 -63 -122 -40 -47 -84
-136 -108 -219 -15 -49 -27 -68 -79 -116 -54 -51 -95 -103 -150 -192 -11 -19
-25 -28 -41 -28 -25 0 -31 8 -17 26 4 5 -3 -1 -15 -15 -11 -13 -36 -29 -55
-36 -18 -7 -41 -16 -52 -20 -16 -7 -17 -5 -11 16 5 16 4 21 -3 14 -5 -5 -12
-18 -14 -28 -1 -10 -7 -18 -13 -18 -5 0 -17 -6 -25 -13 -50 -43 -48 4 5 103
20 36 27 55 15 41 -11 -14 -35 -55 -52 -92 -31 -66 -58 -96 -37 -42 5 15 8 29
5 31 -2 3 -10 -10 -16 -29 -13 -34 -90 -99 -90 -75 0 8 -3 7 -10 -3 -5 -8 -12
-11 -16 -7 -4 3 -1 13 6 22 7 8 10 21 6 30 -3 8 -2 14 2 13 13 -2 65 22 59 29
-4 3 -18 -2 -32 -11 -29 -19 -32 -8 -9 36 9 16 11 28 6 24 -11 -7 -47 -78 -44
-88 2 -7 -38 -37 -75 -57 -36 -18 -27 -6 19 28 40 30 43 45 3 17 -11 -7 -31
-17 -45 -21 -18 -5 -12 2 20 25 46 33 74 58 55 48 -50 -26 -87 -40 -92 -34 -3
3 -12 1 -20 -5 -17 -14 -16 -11 2 41 8 24 13 45 10 48 -3 3 -5 -1 -5 -8 0 -7
-23 -35 -51 -61 -48 -47 -75 -65 -49 -34 10 12 10 15 -3 15 -9 0 -23 -10 -31
-22 -15 -21 -16 -21 -16 -3 0 11 10 28 23 40 13 11 17 16 10 11 -22 -15 -14 9
18 54 17 23 26 39 19 35 -6 -4 -27 -30 -45 -59 -34 -53 -81 -103 -90 -95 -2 3
13 27 35 53 49 60 52 76 4 21 -20 -22 -40 -40 -46 -40 -6 0 -12 -9 -14 -19 -3
-18 -20 -36 -36 -36 -4 0 -5 7 -2 15 4 8 10 15 16 15 5 0 7 4 4 8 -7 12 23 54
34 47 5 -3 12 0 16 6 4 8 3 9 -4 5 -19 -12 -14 6 11 33 12 14 2 9 -25 -13 -26
-21 -52 -35 -57 -32 -5 4 -12 2 -16 -4 -3 -5 -11 -10 -17 -10 -6 0 -3 10 7 23
10 12 2 5 -19 -17 -41 -42 -52 -43 -37 -2 7 16 7 26 1 26 -5 0 -14 -18 -20
-39 -5 -21 -17 -42 -25 -45 -20 -7 -19 13 2 36 9 11 11 18 5 18 -7 0 -12 -4
-12 -9 0 -5 -7 -12 -15 -15 -26 -10 11 46 80 122 33 36 50 60 38 53 -26 -13
-123 -132 -147 -178 -9 -17 -21 -35 -28 -39 -6 -4 -4 3 5 17 21 29 22 40 2 32
-9 -3 -23 -19 -31 -35 -9 -16 -18 -28 -21 -25 -7 7 28 78 36 73 3 -2 15 3 26
11 19 15 19 15 -3 8 l-23 -7 27 41 c14 23 31 41 37 41 6 0 8 3 4 6 -3 3 -16
-1 -29 -10 -12 -9 -19 -16 -14 -16 5 0 1 -9 -9 -20 -25 -27 -43 -26 -19 2 18
21 17 21 -16 -2 -19 -13 -46 -34 -59 -47 -13 -13 -31 -23 -40 -23 -10 1 -5 7
12 16 39 21 27 30 -12 9 -17 -9 -31 -11 -31 -5 0 5 4 10 8 10 5 0 24 14 43 31
43 39 123 84 191 110 29 10 40 17 23 14 -73 -14 -249 -116 -302 -175 -12 -14
-23 -20 -23 -13 0 6 5 15 11 18 6 4 8 14 5 22 -3 8 -2 12 3 9 5 -3 15 1 22 10
7 9 36 29 64 45 58 33 54 38 -7 9 -47 -23 -51 -24 -43 -11 3 6 -4 8 -15 6 -11
-2 -20 -1 -20 3 1 11 70 52 88 52 14 0 14 2 3 9 -8 6 -24 6 -38 0 -12 -5 -23
-6 -23 -3 0 4 -12 -1 -26 -11 -14 -9 -28 -14 -32 -11 -3 3 0 6 7 6 7 0 9 5 5
11 -4 8 -9 8 -17 0 -14 -14 -37 -14 -37 -1 0 6 6 10 14 10 8 0 18 5 22 12 5 7
3 8 -6 3 -9 -6 -10 -2 -5 16 13 41 56 89 89 99 28 9 27 9 -14 5 l-45 -5 39 35
c22 19 62 47 90 61 28 14 42 22 31 19 -11 -4 -32 -9 -47 -12 -15 -3 -25 -9
-22 -14 3 -5 -9 -6 -25 -3 -22 5 -41 0 -68 -16 -37 -22 -38 -22 -19 -1 23 25
11 28 -16 4 -10 -9 -18 -12 -18 -7 0 5 15 19 33 32 71 51 74 54 37 37 -19 -9
-47 -23 -62 -31 -32 -17 -36 -6 -12 32 16 23 125 84 151 84 7 0 13 4 13 10 0
12 -59 2 -79 -14 -11 -8 -13 -8 -7 2 4 7 1 12 -8 12 -9 0 -16 3 -17 8 0 4 -2
16 -4 28 -4 16 6 26 47 47 29 15 46 27 40 27 -7 0 -31 -9 -53 -21 -23 -11 -44
-18 -47 -14 -3 3 4 8 16 12 12 3 22 9 22 13 0 8 36 32 115 78 22 13 31 20 20
17 -61 -21 -81 -29 -90 -36 -5 -5 -17 -9 -27 -9 -10 0 -30 -8 -45 -17 -26 -17
-26 -17 -14 5 6 12 19 22 29 22 9 0 24 5 32 11 12 8 11 9 -6 4 -15 -4 -24 0
-28 11 -7 19 8 33 39 35 17 1 16 2 -5 9 -23 7 -23 8 -3 9 27 1 38 17 17 25 -8
3 -26 -2 -40 -10 -13 -9 -26 -15 -29 -13 -7 8 9 24 35 36 23 11 22 11 -10 6
-32 -6 -34 -5 -21 10 15 19 67 46 90 48 9 1 3 4 -12 8 l-29 6 23 30 23 30 -30
-27 c-17 -16 -39 -28 -49 -28 -15 0 -10 7 18 25 49 34 47 41 -4 15 -42 -22
-55 -21 -46 3 6 17 65 46 127 63 25 7 38 13 30 13 -15 1 -70 -12 -105 -23 -11
-4 -7 0 8 9 35 20 30 30 -7 16 -29 -12 -33 -3 -16 30 6 11 22 19 38 20 l27 1
-25 7 -25 7 28 7 c38 10 34 22 -11 24 -28 2 -33 0 -22 -8 13 -8 12 -10 -3 -7
-30 5 -21 22 20 35 37 11 37 11 8 13 -26 1 -27 3 -10 10 11 4 36 13 55 19 32
9 30 10 -20 5 l-55 -5 65 30 c36 17 58 30 50 31 -8 0 -35 -10 -60 -21 l-45
-20 40 42 40 43 -35 -26 c-19 -14 -46 -29 -60 -33 -14 -4 -30 -15 -37 -24 -11
-14 -11 -13 -7 4 5 19 23 33 99 77 17 9 26 17 20 17 -5 0 -21 -6 -35 -14 -62
-35 -46 -5 18 36 25 16 42 29 38 29 -5 0 -31 -14 -58 -30 -41 -26 -47 -27 -38
-10 6 11 15 20 19 20 5 0 11 7 15 15 4 13 1 12 -22 -2 -27 -16 -27 -16 3 14
17 17 33 28 38 26 4 -2 6 1 5 8 -2 8 20 20 57 30 33 10 52 18 42 18 -24 1
-109 -20 -122 -30 -6 -4 -24 -13 -40 -18 -28 -10 -28 -10 -10 4 11 8 25 18 30
22 6 5 21 14 35 20 23 11 21 12 -20 7 l-45 -4 35 14 c35 14 35 14 7 15 -34 1
-27 17 17 38 20 9 23 12 9 9 -38 -7 -26 11 15 23 l37 11 -42 -4 c-44 -4 -60
11 -23 21 11 3 17 9 14 14 -3 5 5 19 18 30 20 18 21 20 3 14 -11 -4 -30 -9
-41 -10 -12 -2 -31 -8 -43 -14 -11 -7 -21 -8 -21 -3 0 11 50 35 58 28 6 -7 59
21 68 36 6 10 5 10 -7 2 -8 -7 -30 -16 -49 -22 -19 -5 -44 -13 -55 -17 -18 -7
-18 -6 -5 8 8 8 31 20 50 26 l35 11 -33 -5 c-24 -3 -31 -1 -26 8 6 8 3 8 -9
-1 -9 -8 -24 -12 -34 -10 -26 5 35 46 111 74 64 24 66 29 3 15 -20 -5 -39 -5
-42 0 -3 4 -13 5 -23 2 -15 -6 -15 -5 -3 10 8 10 9 17 3 17 -6 0 -14 -4 -17
-10 -3 -5 -11 -10 -17 -10 -7 0 -6 5 1 14 15 17 0 28 -26 20 -30 -9 16 26 50
38 15 6 26 12 24 14 -2 3 -17 0 -32 -6 -44 -17 -41 -4 4 20 50 25 54 34 6 14
-40 -17 -45 -17 -45 -5 0 5 14 13 31 16 23 5 28 9 18 16 -10 6 -7 9 11 10 25
1 25 1 2 7 -21 7 -20 9 20 35 50 32 46 34 -13 7 -74 -33 -90 -23 -24 15 66 38
68 47 4 14 -55 -28 -58 -20 -6 15 23 16 34 26 25 23 -31 -11 -19 3 29 33 26
17 44 30 41 30 -3 0 -40 -11 -83 -25 -86 -28 -107 -28 -45 0 22 10 46 25 53
33 10 12 6 12 -20 -2 -31 -15 -33 -15 -43 3 -9 18 -5 21 37 34 36 11 42 15 23
17 -23 1 -22 3 10 16 l35 14 -39 -6 c-35 -5 -38 -4 -27 10 7 8 21 18 32 21 10
4 19 12 19 19 0 7 15 20 33 29 20 10 26 16 14 16 -9 1 -25 -3 -35 -8 -9 -5
-41 -21 -70 -36 -29 -15 -56 -24 -59 -21 -4 3 8 11 25 17 17 6 30 15 29 19 -1
5 14 23 33 40 l35 30 -37 -14 c-21 -8 -38 -12 -38 -8 0 11 80 81 101 87 10 4
19 10 19 15 0 5 17 18 38 29 41 22 39 27 -5 10 -23 -10 -123 -19 -123 -12 0 2
24 16 53 33 53 31 59 42 7 15 -18 -9 -36 -12 -50 -7 -20 8 -19 10 20 36 23 15
59 34 79 42 36 14 20 14 -46 -3 -24 -5 -26 -4 -16 9 7 8 9 18 5 22 -4 4 -2 6
3 5 6 -2 26 7 45 19 46 29 35 28 -36 -4 -63 -29 -119 -41 -109 -24 4 6 21 17
38 25 l32 14 -29 -6 c-20 -4 -27 -3 -22 6 4 6 13 11 20 11 7 0 30 14 51 30 21
17 46 30 56 30 10 0 21 5 25 11 4 8 -1 9 -17 4 -89 -29 -125 -21 -67 15 39 23
30 27 -12 5 -20 -10 -30 -12 -30 -4 0 14 56 66 92 85 15 8 28 17 28 19 0 8
-33 -8 -79 -37 -47 -29 -61 -34 -61 -20 0 5 16 17 35 27 19 11 33 21 31 23 -2
2 -18 -4 -36 -13 -32 -17 -57 -12 -30 5 13 8 12 10 -2 10 -10 0 -18 3 -18 6 0
16 62 64 82 65 22 0 22 1 3 9 -11 5 -15 9 -8 9 6 1 19 8 27 16 8 9 32 22 53
31 32 12 33 13 8 9 -16 -4 -58 -20 -93 -37 -69 -33 -94 -33 -37 0 19 12 34 26
33 31 -2 5 6 17 17 26 18 15 17 15 -15 0 l-35 -16 25 23 c14 13 37 31 50 41
14 10 18 15 10 11 -8 -4 -29 -18 -47 -30 -17 -13 -38 -24 -46 -24 -8 0 -18 -7
-21 -16 -10 -27 -26 -5 -26 37 0 34 4 41 33 53 17 8 25 15 17 16 -8 1 -2 8 15
16 29 15 21 14 -37 -2 -17 -5 -12 4 22 36 43 40 44 41 12 25 -19 -9 -36 -14
-38 -12 -8 8 27 37 44 37 11 0 13 3 5 8 -8 5 -8 14 3 32 13 22 14 23 12 4 -4
-29 15 -31 24 -2 5 21 6 21 8 3 1 -11 3 -24 5 -30 1 -5 3 -21 3 -34 2 -16 6
-21 17 -17 9 3 15 0 15 -9 0 -8 4 -15 9 -15 4 0 7 24 5 53 l-4 52 19 -55 19
-55 1 65 c1 36 2 73 2 84 0 22 3 20 23 -19 l16 -30 0 33 c0 18 6 41 13 52 12
20 12 20 18 -7 3 -15 4 -42 1 -59z m291 71 c4 -8 2 -17 -3 -20 -6 -4 -10 3
-10 14 0 25 6 27 13 6z m448 -8 c-10 -9 -11 -8 -5 6 3 10 9 15 12 12 3 -3 0
-11 -7 -18z m-151 -16 c0 -6 -4 -13 -10 -16 -5 -3 -10 1 -10 9 0 9 5 16 10 16
6 0 10 -4 10 -9z m27 -13 c-3 -8 -6 -5 -6 6 -1 11 2 17 5 13 3 -3 4 -12 1 -19z
m2525 1 c-18 -12 -35 -19 -38 -16 -3 3 7 12 23 21 42 23 53 19 15 -5z m-2810
-34 c5 18 6 18 7 -2 0 -13 5 -23 10 -23 6 0 7 16 4 35 -5 30 -3 34 11 29 21
-8 20 -38 -3 -99 l-19 -50 -27 57 c-18 40 -24 65 -19 80 7 21 8 21 19 -12 10
-29 13 -32 17 -15z m2868 37 c0 -13 -41 -54 -48 -47 -4 3 -2 9 4 13 6 4 13 15
17 25 6 17 27 24 27 9z m-2766 -17 c-4 -8 -8 -15 -10 -15 -2 0 -4 7 -4 15 0 8
4 15 10 15 5 0 7 -7 4 -15z m255 -55 c0 -19 -4 -44 -8 -55 -8 -19 -8 -19 -15
3 -4 13 -5 26 -3 29 3 3 1 16 -4 30 -6 18 -6 30 2 40 17 19 29 -1 28 -47z
m-662 8 c-3 -7 -5 -2 -5 12 0 14 2 19 5 13 2 -7 2 -19 0 -25z m3103 2 c0 -5
-5 -10 -11 -10 -5 0 -7 5 -4 10 3 6 8 10 11 10 2 0 4 -4 4 -10z m-2640 -30 c0
-5 -4 -10 -10 -10 -5 0 -10 5 -10 10 0 6 5 10 10 10 6 0 10 -4 10 -10z m2645
-40 c-3 -5 -11 -10 -16 -10 -6 0 -7 5 -4 10 3 6 11 10 16 10 6 0 7 -4 4 -10z
m-5315 -10 c0 -5 -4 -10 -10 -10 -5 0 -10 5 -10 10 0 6 5 10 10 10 6 0 10 -4
10 -10z m3150 -22 c0 -7 -5 -20 -10 -28 -8 -12 -10 -9 -10 13 0 15 5 27 10 27
6 0 10 -6 10 -12z m2200 -2 c0 -3 -4 -8 -10 -11 -5 -3 -10 -1 -10 4 0 6 5 11
10 11 6 0 10 -2 10 -4z m117 -7 c-9 -6 -27 -12 -38 -14 -12 -2 -27 -10 -35
-16 -12 -10 -13 -9 -8 5 8 20 31 31 72 34 23 1 24 0 9 -9z m-5578 -103 c-29
-49 -34 -46 -9 5 12 23 24 39 26 36 3 -2 -5 -21 -17 -41z m-39 -26 c-16 -31
-23 -18 -8 15 7 15 14 23 16 17 2 -6 -2 -21 -8 -32z m5582 18 c-7 -7 -12 -8
-12 -2 0 14 12 26 19 19 2 -3 -1 -11 -7 -17z m-5474 -13 c-6 -14 -13 -23 -15
-21 -5 5 15 46 22 46 3 0 -1 -11 -7 -25z m1909 -27 c-3 -8 -6 -5 -6 6 -1 11 2
17 5 13 3 -3 4 -12 1 -19z m3545 0 c-7 -7 -12 -8 -12 -2 0 14 12 26 19 19 2
-3 -1 -11 -7 -17z m-3432 8 c0 -2 -7 -7 -16 -10 -8 -3 -12 -2 -9 4 6 10 25 14
25 6z m-2120 -14 c0 -5 -7 -17 -15 -28 -14 -18 -14 -17 -4 9 12 27 19 34 19
19z m5600 -65 c0 -2 -10 -12 -22 -23 l-23 -19 19 23 c18 21 26 27 26 19z
m-5573 -39 c-3 -7 -5 -2 -5 12 0 14 2 19 5 13 2 -7 2 -19 0 -25z m3544 -59
c-16 -53 -25 -43 -16 17 5 33 10 43 17 36 8 -8 8 -23 -1 -53z m66 -16 c-3 -10
-5 -4 -5 12 0 17 2 24 5 18 2 -7 2 -21 0 -30z m-3603 -8 c-4 -8 -8 -15 -10
-15 -2 0 -4 7 -4 15 0 8 4 15 10 15 5 0 7 -7 4 -15z m3587 -58 c-13 -12 -20
-15 -16 -7 14 26 28 41 33 35 3 -3 -5 -16 -17 -28z m-3604 -39 c-3 -8 -6 -5
-6 6 -1 11 2 17 5 13 3 -3 4 -12 1 -19z m3763 2 c-6 -11 -16 -20 -22 -20 -6 0
-3 9 7 20 10 11 20 20 22 20 2 0 -1 -9 -7 -20z m-1690 -4 c0 -2 -7 -7 -16 -10
-8 -3 -12 -2 -9 4 6 10 25 14 25 6z m-2090 -15 c0 -5 -7 -14 -15 -21 -16 -14
-18 -10 -9 14 6 17 24 22 24 7z m30 -21 c0 -5 -2 -10 -4 -10 -3 0 -8 5 -11 10
-3 6 -1 10 4 10 6 0 11 -4 11 -10z m5664 -8 c3 -5 0 -9 -7 -9 -7 0 -21 -4 -32
-8 l-20 -8 20 16 c23 19 32 21 39 9z m-5611 -22 c-3 -11 -9 -20 -13 -20 -5 0
-6 9 -3 20 3 11 9 20 13 20 5 0 6 -9 3 -20z m-167 -65 c-39 -64 -53 -81 -42
-50 12 33 70 127 74 117 1 -5 -13 -35 -32 -67z m114 -10 c-7 -25 -15 -43 -18
-41 -3 3 1 26 8 51 7 25 15 43 18 41 3 -3 -1 -26 -8 -51z m2085 35 c-10 -11
-23 -20 -28 -20 -6 0 -2 9 8 20 10 11 23 20 28 20 6 0 2 -9 -8 -20z m1645 -9
c-10 -21 -30 -37 -30 -26 0 14 21 45 31 45 6 0 6 -7 -1 -19z m-1611 -5 c-2 -2
-15 -9 -29 -16 -23 -12 -24 -12 -11 3 7 10 20 17 29 17 8 0 13 -2 11 -4z m-74
-35 c-3 -6 -14 -11 -23 -11 -13 0 -13 2 4 14 21 15 30 14 19 -3z m35 -41 c-20
-13 -43 -13 -35 0 3 6 16 10 28 10 18 0 19 -2 7 -10z m-2093 -24 c-3 -8 -2
-16 2 -18 4 -2 0 -16 -10 -33 l-19 -30 0 28 c0 28 15 67 26 67 4 0 4 -6 1 -14z
m33 -36 c-11 -22 -22 -40 -25 -40 -7 0 14 52 27 67 19 24 19 13 -2 -27z m2130
27 c0 -7 -87 -66 -101 -69 -8 -2 -18 -7 -22 -13 -5 -6 -7 -4 -5 5 2 8 21 23
42 34 26 12 34 21 26 26 -9 6 -8 9 6 13 24 6 54 8 54 4z m3555 -27 c-9 -15
-85 -52 -85 -42 0 13 32 39 55 45 33 8 36 7 30 -3z m-5648 -22 c-3 -8 -6 -5
-6 6 -1 11 2 17 5 13 3 -3 4 -12 1 -19z m-87 -79 c0 -5 -4 -9 -10 -9 -5 0 -10
7 -10 16 0 8 5 12 10 9 6 -3 10 -10 10 -16z m3856 -47 c-12 -11 -16 6 -9 39
l8 34 3 -33 c2 -19 1 -36 -2 -40z m1884 33 c-7 -8 -20 -15 -29 -15 -11 1 -8 5
9 15 32 18 35 18 20 0z m-1929 -22 c-12 -20 -14 -14 -5 12 4 9 9 14 11 11 3
-2 0 -13 -6 -23z m49 -97 c0 -18 -7 -41 -16 -52 -14 -18 -15 -17 -11 16 2 19
8 44 12 54 6 15 5 17 -5 11 -9 -5 -11 -4 -6 4 12 19 26 2 26 -33z m-3777 2
c-8 -43 -25 -85 -52 -128 l-23 -35 5 51 c4 58 42 144 63 144 10 0 12 -9 7 -32z
m5697 7 c-7 -8 -16 -12 -21 -9 -5 3 -13 -6 -19 -20 -5 -14 -12 -26 -16 -26 -3
0 -4 7 0 15 7 20 -4 19 -20 -2 -7 -10 -14 -13 -14 -6 0 17 63 59 94 62 5 1 3
-6 -4 -14z m-5674 -82 c-2 -16 -4 -31 -5 -35 0 -5 -5 -8 -10 -8 -8 0 -6 21 5
58 6 22 13 13 10 -15z m1984 -48 c0 -2 -10 -9 -22 -15 -22 -11 -22 -10 -4 4
21 17 26 19 26 11z m3730 -30 c-13 -15 -73 -18 -64 -3 3 5 9 6 12 4 4 -2 18 2
32 9 29 16 38 12 20 -10z m-5777 -5 c-3 -10 -12 -25 -21 -32 -13 -11 -12 -8 2
20 19 36 27 41 19 12z m3837 -37 c0 -5 -7 -17 -15 -27 -15 -20 -20 -10 -9 18
6 16 24 22 24 9z m-3847 -45 c-8 -65 -22 -82 -23 -27 0 36 12 69 26 69 1 0 0
-19 -3 -42z m27 -28 c-11 -30 -17 -64 -14 -75 4 -14 3 -16 -4 -6 -8 11 -10 11
-15 0 -4 -10 -6 -10 -6 2 -1 9 6 34 15 55 9 20 17 49 19 63 2 14 4 28 4 31 1
2 5 0 11 -6 6 -6 3 -28 -10 -64z m3840 30 c-16 -31 -23 -18 -8 15 7 15 14 23
16 17 2 -6 -2 -21 -8 -32z m-54 -89 c-19 -32 -38 -71 -44 -87 -9 -24 -11 -25
-11 -8 -2 38 11 84 23 84 7 0 20 16 29 35 9 19 21 35 26 35 6 0 -5 -26 -23
-59z m-3758 -17 c-7 -15 -14 -21 -16 -15 -5 16 5 41 17 41 7 0 6 -10 -1 -26z
m5722 1 c-7 -8 -17 -15 -22 -15 -6 0 -5 7 2 15 7 8 17 15 22 15 6 0 5 -7 -2
-15z m-5704 -21 c-4 -9 -9 -15 -11 -12 -3 3 -3 13 1 22 4 9 9 15 11 12 3 -3 3
-13 -1 -22z m-45 -80 c-3 -6 -28 -46 -56 -89 -37 -57 -51 -72 -53 -58 -4 29
50 163 65 163 7 0 13 -4 13 -10 0 -5 4 -10 10 -10 6 0 6 10 -1 27 -5 14 -7 34
-3 42 5 12 10 7 19 -19 7 -19 10 -40 6 -46z m5714 36 c-3 -5 -1 -10 4 -10 6 0
11 -4 11 -10 0 -19 -26 -10 -27 10 -1 11 3 20 8 20 6 0 7 -4 4 -10z m-3667
-14 c-16 -8 -32 -18 -38 -21 -5 -3 -7 0 -4 9 6 14 23 23 54 25 8 0 3 -6 -12
-13z m3669 -40 c0 -11 -9 -13 -35 -7 -2 1 0 6 3 11 9 15 32 12 32 -4z m28 -46
c-20 -22 -31 -20 -22 5 4 8 14 15 23 15 16 0 16 -2 -1 -20z m-5774 -23 c-10
-9 -11 -8 -5 6 3 10 9 15 12 12 3 -3 0 -11 -7 -18z m5729 -2 c-7 -8 -18 -15
-24 -15 -6 0 -2 7 8 15 25 19 32 19 16 0z m-5739 -33 c-5 -10 -18 -25 -27 -33
-16 -12 -17 -12 -9 1 10 18 37 50 42 50 2 0 -1 -8 -6 -18z m2099 -2 c-16 -11
-40 -13 -40 -5 0 8 44 24 50 18 2 -2 -2 -8 -10 -13z m-75 -100 c-3 -5 -12 -10
-18 -10 -7 0 -6 4 3 10 19 12 23 12 15 0z m3648 -55 c-3 -9 -8 -14 -10 -11 -3
3 -2 9 2 15 9 16 15 13 8 -4z m47 -25 c0 -11 -4 -20 -10 -20 -5 0 -10 9 -10
20 0 11 5 20 10 20 6 0 10 -9 10 -20z m30 10 c0 -5 -2 -10 -4 -10 -3 0 -8 5
-11 10 -3 6 -1 10 4 10 6 0 11 -4 11 -10z m-60 -30 c0 -5 -4 -10 -10 -10 -5 0
-10 5 -10 10 0 6 5 10 10 10 6 0 10 -4 10 -10z m30 -20 c0 -5 -5 -10 -11 -10
-5 0 -7 5 -4 10 3 6 8 10 11 10 2 0 4 -4 4 -10z m-5689 -47 c-8 -15 -10 -15
-11 -2 0 17 10 32 18 25 2 -3 -1 -13 -7 -23z m5699 23 c0 -3 -4 -8 -10 -11 -5
-3 -10 -1 -10 4 0 6 5 11 10 11 6 0 10 -2 10 -4z m-5710 -60 c0 -7 -8 -20 -17
-27 -15 -12 -16 -12 -10 4 4 10 7 23 7 28 0 5 5 9 10 9 6 0 10 -6 10 -14z
m5680 4 c0 -5 -5 -10 -11 -10 -5 0 -7 5 -4 10 3 6 8 10 11 10 2 0 4 -4 4 -10z
m-5665 -50 c-23 -44 -29 -32 -9 16 9 21 19 34 21 27 2 -6 -3 -26 -12 -43z
m3821 12 c-17 -16 -18 -16 -5 5 7 12 15 20 18 17 3 -2 -3 -12 -13 -22z m1818
-7 c-4 -8 -11 -15 -16 -15 -6 0 -5 6 2 15 7 8 14 15 16 15 2 0 1 -7 -2 -15z
m36 11 c0 -2 -8 -10 -17 -17 -16 -13 -17 -12 -4 4 13 16 21 21 21 13z m-5749
-59 c-10 -9 -11 -8 -5 6 3 10 9 15 12 12 3 -3 0 -11 -7 -18z m32 3 c-3 -12 -8
-19 -11 -16 -5 6 5 36 12 36 2 0 2 -9 -1 -20z m3868 -13 c-10 -9 -11 -8 -5 6
3 10 9 15 12 12 3 -3 0 -11 -7 -18z m1900 -14 c-53 -65 -61 -73 -71 -73 -16 0
-11 33 8 57 16 21 68 53 86 53 4 0 -6 -17 -23 -37z m-5799 -25 c-7 -7 -12 -8
-12 -2 0 14 12 26 19 19 2 -3 -1 -11 -7 -17z m3851 -33 c-3 -9 -8 -14 -10 -11
-3 3 -2 9 2 15 9 16 15 13 8 -4z m-1733 -20 c0 -2 -10 -9 -22 -15 -22 -11 -22
-10 -4 4 21 17 26 19 26 11z m3612 -37 c-7 -7 -12 -8 -12 -2 0 14 12 26 19 19
2 -3 -1 -11 -7 -17z m-1821 -31 c-10 -9 -11 -8 -5 6 3 10 9 15 12 12 3 -3 0
-11 -7 -18z m-3840 -84 c-10 -17 -10 -16 -11 3 0 23 13 41 18 25 2 -6 -1 -18
-7 -28z m5649 7 c0 -5 -4 -10 -10 -10 -5 0 -10 5 -10 10 0 6 5 10 10 10 6 0
10 -4 10 -10z m-1930 -21 c-7 -11 -14 -18 -17 -15 -3 3 0 12 7 21 18 21 23 19
10 -6z m-16 -93 c-21 -36 -40 -64 -42 -62 -2 2 13 37 34 77 20 41 39 69 41 62
2 -6 -13 -41 -33 -77z m1936 69 c-7 -9 -15 -13 -19 -10 -3 3 1 10 9 15 21 14
24 12 10 -5z m-3605 -15 c-3 -5 -14 -10 -23 -9 -14 0 -13 2 3 9 27 11 27 11
20 0z m-2034 -23 c-10 -9 -11 -8 -5 6 3 10 9 15 12 12 3 -3 0 -11 -7 -18z
m3751 -39 c-7 -7 -12 -8 -12 -2 0 14 12 26 19 19 2 -3 -1 -11 -7 -17z m-3798
-23 c-9 -14 -18 -25 -21 -25 -5 0 5 18 20 38 17 22 18 13 1 -13z m48 -17 c-7
-7 -12 -8 -12 -2 0 14 12 26 19 19 2 -3 -1 -11 -7 -17z m-12 -22 c0 -3 -4 -8
-10 -11 -5 -3 -10 -1 -10 4 0 6 5 11 10 11 6 0 10 -2 10 -4z m3695 -92 c-8
-16 -15 -23 -15 -16 0 17 20 55 26 49 2 -2 -2 -17 -11 -33z m1925 6 c0 -11 -4
-20 -10 -20 -5 0 -10 9 -10 20 0 11 5 20 10 20 6 0 10 -9 10 -20z m-1914 -55
c-9 -14 -21 -25 -26 -25 -6 0 -10 -5 -10 -11 0 -5 5 -7 12 -3 7 4 8 3 4 -5 -4
-6 -12 -9 -17 -6 -12 8 -12 35 1 35 5 0 17 15 26 33 10 18 19 26 22 19 2 -7
-3 -24 -12 -37z m-62 -30 c-24 -69 -69 -163 -86 -180 -15 -14 -4 37 21 106 17
45 75 139 86 139 1 0 -8 -29 -21 -65z m1941 45 c-3 -5 -14 -10 -23 -10 -15 0
-15 2 -2 10 20 13 33 13 25 0z m45 -34 c0 -8 3 -23 6 -33 3 -10 -2 -7 -10 7
-18 30 -20 40 -6 40 6 0 10 -6 10 -14z m-46 -31 c-26 -19 -32 -9 -8 14 10 10
21 14 23 9 1 -5 -5 -15 -15 -23z m21 -15 c-3 -5 -11 -10 -16 -10 -6 0 -7 5 -4
10 3 6 11 10 16 10 6 0 7 -4 4 -10z m-3585 -27 c0 -3 -3 -4 -6 0 -3 3 -18 1
-33 -4 -23 -8 -24 -8 -9 4 10 8 14 18 10 22 -4 4 3 2 16 -4 12 -6 22 -15 22
-18z m-2030 13 c0 -3 -4 -8 -10 -11 -5 -3 -10 -1 -10 4 0 6 5 11 10 11 6 0 10
-2 10 -4z m5635 -27 c4 -11 5 -22 3 -23 -1 -1 -20 -15 -41 -31 -29 -21 -41
-25 -50 -16 -13 13 2 32 48 55 21 11 24 16 12 16 -10 0 -15 5 -12 10 11 17 33
11 40 -11z m-3585 1 c0 -5 -5 -10 -11 -10 -5 0 -7 5 -4 10 3 6 8 10 11 10 2 0
4 -4 4 -10z m1613 -20 c-3 -12 -8 -19 -11 -16 -5 6 5 36 12 36 2 0 2 -9 -1
-20z m1992 -39 c-6 -4 -23 -11 -40 -15 l-30 -6 29 25 c20 19 32 23 39 16 7 -7
7 -14 2 -20z m-3550 -79 c-16 -11 -36 -26 -44 -35 -7 -10 -18 -17 -24 -17 -6
0 6 16 26 35 20 19 45 35 55 35 12 0 8 -6 -13 -18z m-2155 -59 c-20 -36 -21
-36 -15 -8 7 30 24 59 32 51 3 -2 -5 -21 -17 -43z m3583 30 c-4 -10 -45 -56
-92 -103 -46 -47 -81 -78 -76 -70 29 52 151 190 167 190 4 0 4 -8 1 -17z
m1975 -33 c-1 -35 -18 -41 -18 -7 0 21 7 37 16 37 1 0 2 -13 2 -30z m-1938 5
c-7 -9 -15 -13 -17 -11 -7 7 7 26 19 26 6 0 6 -6 -2 -15z m-3655 -32 c-7 -31
-55 -106 -63 -99 -4 5 59 126 66 126 2 0 1 -12 -3 -27z m5625 17 c0 -5 -2 -10
-4 -10 -3 0 -8 5 -11 10 -3 6 -1 10 4 10 6 0 11 -4 11 -10z m-3489 -27 c-23
-40 -49 -65 -62 -61 -9 3 -2 16 24 41 39 40 54 47 38 20z m1465 -11 c-18 -16
-18 -16 -6 6 6 13 14 21 18 18 3 -4 -2 -14 -12 -24z m-3585 -29 c-8 -15 -10
-15 -11 -2 0 17 10 32 18 25 2 -3 -1 -13 -7 -23z m3519 -13 c-11 -16 -26 -33
-33 -37 -12 -7 0 11 32 50 23 28 24 20 1 -13z m-48 -77 c-23 -33 -69 -75 -57
-53 18 34 57 80 66 80 6 0 2 -12 -9 -27z m-103 -92 c-20 -30 -41 -49 -51 -48
-10 1 -18 4 -18 8 0 12 39 54 40 42 0 -6 -4 -15 -10 -18 -5 -3 -10 -11 -10
-18 0 -6 7 -1 16 11 8 12 13 26 9 31 -6 10 45 55 53 46 3 -2 -10 -27 -29 -54z
m-1199 45 c0 -3 -4 -8 -10 -11 -5 -3 -10 -1 -10 4 0 6 5 11 10 11 6 0 10 -2
10 -4z m1146 -34 l-28 -27 12 25 c14 27 31 42 39 34 3 -2 -8 -17 -23 -32z
m-1192 7 c-10 -11 -27 -25 -38 -31 -17 -9 -17 -7 3 21 12 17 30 31 38 31 14 0
13 -3 -3 -21z m1156 -19 c-8 -15 -15 -19 -19 -11 -11 16 -36 4 -51 -25 -16
-30 -30 -32 -23 -3 7 26 64 63 74 48 4 -7 9 -4 13 7 3 9 9 14 12 11 3 -3 0
-15 -6 -27z m-3200 14 c0 -17 -24 -90 -33 -99 -6 -6 -7 -3 -4 10 3 11 9 37 13
58 3 20 10 37 15 37 5 0 9 -3 9 -6z m5425 -3 c3 -5 1 -12 -5 -16 -5 -3 -10 1
-10 9 0 18 6 21 15 7z m-3205 -42 c-12 -16 -26 -29 -31 -29 -6 0 -8 -4 -5 -9
3 -5 -1 -14 -9 -21 -13 -11 -15 -9 -11 11 3 13 5 27 5 32 1 4 13 12 29 18 17
7 22 13 13 16 -11 5 -11 7 0 14 25 15 29 -2 9 -32z m940 -4 c-7 -9 -15 -13
-17 -11 -7 7 7 26 19 26 6 0 6 -6 -2 -15z m2273 -5 c3 -11 1 -20 -4 -20 -5 0
-9 9 -9 20 0 11 2 20 4 20 2 0 6 -9 9 -20z m-2993 6 c0 -2 -8 -10 -17 -17 -16
-13 -17 -12 -4 4 13 16 21 21 21 13z m230 -41 c-7 -8 -17 -15 -23 -15 -5 0 -2
9 8 20 21 23 35 19 15 -5z m80 -39 c0 -2 -8 -10 -17 -17 -16 -13 -17 -12 -4 4
13 16 21 21 21 13z m-2753 -46 c-11 -30 -31 -43 -22 -15 3 8 7 22 10 30 2 8 9
15 14 15 5 0 5 -13 -2 -30z m5304 -13 c-10 -9 -11 -8 -5 6 3 10 9 15 12 12 3
-3 0 -11 -7 -18z m-5341 -25 c0 -11 -22 -32 -32 -32 -5 0 -4 9 2 20 11 20 30
28 30 12z m-65 -60 c-15 -16 -16 -15 -4 12 7 15 15 23 17 16 3 -7 -3 -19 -13
-28z m5409 13 c3 -8 1 -15 -4 -15 -6 0 -10 7 -10 15 0 8 2 15 4 15 2 0 6 -7
10 -15z m-5328 -81 c-4 -9 -9 -15 -11 -12 -3 3 -3 13 1 22 4 9 9 15 11 12 3
-3 3 -13 -1 -22z m36 -86 c-8 -8 -9 -4 -5 13 4 13 8 18 11 10 2 -7 -1 -18 -6
-23z m-15 -140 c-3 -7 -5 -2 -5 12 0 14 2 19 5 13 2 -7 2 -19 0 -25z m5043 22
c0 -5 -5 -10 -11 -10 -5 0 -7 5 -4 10 3 6 8 10 11 10 2 0 4 -4 4 -10z m-4980
-24 c0 -3 -4 -8 -10 -11 -5 -3 -10 -1 -10 4 0 6 5 11 10 11 6 0 10 -2 10 -4z
m4977 -28 c-3 -8 -6 -5 -6 6 -1 11 2 17 5 13 3 -3 4 -12 1 -19z m-5020 -30
c-3 -8 -6 -5 -6 6 -1 11 2 17 5 13 3 -3 4 -12 1 -19z m5002 -25 c0 -5 -4 -17
-9 -28 -8 -17 -8 -16 -7 8 1 15 5 27 9 27 4 0 8 -3 7 -7z m-5009 -27 c0 -2 -8
-10 -17 -17 -16 -13 -17 -12 -4 4 13 16 21 21 21 13z m4948 -87 l-3 -44 -5 52
c-3 29 -1 48 3 44 5 -5 7 -28 5 -52z m-20 -1 c1 -33 -1 -38 -8 -23 -11 26 -12
65 -2 65 4 0 9 -19 10 -42z m-44 -54 c9 -23 7 -36 -3 -30 -12 8 -21 46 -11 46
4 0 11 -7 14 -16z m60 -54 l6 -35 -15 30 c-16 33 -21 82 -6 55 5 -8 11 -31 15
-50z m-117 3 c-3 -10 -5 -4 -5 12 0 17 2 24 5 18 2 -7 2 -21 0 -30z m-4838
-307 c-9 -8 -10 -7 -5 7 3 10 7 26 7 35 1 9 4 6 6 -7 3 -13 -1 -28 -8 -35z
m4406 44 c3 -5 1 -10 -4 -10 -6 0 -11 5 -11 10 0 6 2 10 4 10 3 0 8 -4 11 -10z
m122 -12 c-3 -8 -6 -5 -6 6 -1 11 2 17 5 13 3 -3 4 -12 1 -19z m-4447 -22 c0
-3 -4 -8 -10 -11 -5 -3 -10 -1 -10 4 0 6 5 11 10 11 6 0 10 -2 10 -4z m-108
-38 c-7 -7 -12 -8 -12 -2 0 6 3 14 7 17 3 4 9 5 12 2 2 -3 -1 -11 -7 -17z m50
-50 c-7 -7 -12 -8 -12 -2 0 6 3 14 7 17 3 4 9 5 12 2 2 -3 -1 -11 -7 -17z m48
-3 c0 -8 -4 -15 -10 -15 -5 0 -7 7 -4 15 4 8 8 15 10 15 2 0 4 -7 4 -15z
m4030 -35 c0 -5 -2 -10 -4 -10 -3 0 -8 5 -11 10 -3 6 -1 10 4 10 6 0 11 -4 11
-10z m-244 -27 c-10 -10 -19 5 -10 18 6 11 8 11 12 0 2 -7 1 -15 -2 -18z
m-3836 -19 c-18 -21 -24 -10 -9 18 8 14 14 18 17 10 2 -7 -2 -19 -8 -28z m-30
-7 c0 -18 -7 -42 -15 -53 -15 -18 -16 -17 -10 16 14 76 25 93 25 37z m67 1
c-3 -8 -6 -5 -6 6 -1 11 2 17 5 13 3 -3 4 -12 1 -19z m3863 -11 c0 -5 -4 -5
-10 -2 -5 3 -10 14 -10 23 0 15 2 15 10 2 5 -8 10 -19 10 -23z m75 -7 c-4 -17
-9 -29 -12 -26 -3 2 -2 19 2 36 4 17 9 29 12 26 3 -2 2 -19 -2 -36z m-38 -17
c-3 -10 -5 -4 -5 12 0 17 2 24 5 18 2 -7 2 -21 0 -30z m-97 17 c0 -5 -5 -10
-11 -10 -5 0 -7 5 -4 10 3 6 8 10 11 10 2 0 4 -4 4 -10z m-113 -32 c-3 -7 -5
-2 -5 12 0 14 2 19 5 13 2 -7 2 -19 0 -25z m-48 -5 c0 -25 -1 -26 -9 -8 -12
27 -12 35 0 35 6 0 10 -12 9 -27z m-3618 -26 c-5 -14 -15 -28 -22 -33 -7 -4
-10 -3 -6 3 4 6 11 23 17 38 6 15 13 26 16 23 2 -3 0 -17 -5 -31z m3370 -30
c-8 -8 -11 -2 -11 19 0 40 14 54 18 19 2 -15 -1 -32 -7 -38z m-2220 0 c-10 -9
-11 -8 -5 6 3 10 9 15 12 12 3 -3 0 -11 -7 -18z m2245 -58 c-9 -31 -15 -44
-15 -29 -1 45 12 101 21 92 5 -5 2 -31 -6 -63z m-3216 33 c0 -15 -2 -15 -10
-2 -13 20 -13 33 0 25 6 -3 10 -14 10 -23z m130 13 c0 -8 -4 -15 -10 -15 -5 0
-7 7 -4 15 4 8 8 15 10 15 2 0 4 -7 4 -15z m114 0 c-4 -8 -8 -15 -10 -15 -2 0
-4 7 -4 15 0 8 4 15 10 15 5 0 7 -7 4 -15z m2571 -4 c3 -5 1 -12 -5 -16 -5 -3
-10 1 -10 9 0 18 6 21 15 7z m-2259 -27 c-4 -9 -9 -15 -11 -12 -3 3 -3 13 1
22 4 9 9 15 11 12 3 -3 3 -13 -1 -22z m-616 -16 c-1 -26 -3 -30 -10 -16 -6 9
-7 23 -4 32 9 25 14 19 14 -16z m2568 -58 l0 -35 -8 30 c-4 17 -8 46 -8 65 l0
35 8 -30 c4 -16 8 -46 8 -65z m421 63 c0 -25 -1 -26 -9 -8 -12 27 -12 35 0 35
6 0 10 -12 9 -27z m228 -10 c-3 -10 -5 -4 -5 12 0 17 2 24 5 18 2 -7 2 -21 0
-30z m-2370 -5 c-3 -7 -5 -2 -5 12 0 14 2 19 5 13 2 -7 2 -19 0 -25z m40 10
c-3 -8 -6 -5 -6 6 -1 11 2 17 5 13 3 -3 4 -12 1 -19z m2040 -10 c-3 -7 -5 -2
-5 12 0 14 2 19 5 13 2 -7 2 -19 0 -25z m-1682 -20 c-7 -31 -8 -32 -16 -10 -6
15 -5 28 4 37 17 18 20 12 12 -27z m51 6 c-4 -14 -9 -24 -12 -21 -3 2 -2 17 2
31 3 15 9 25 11 22 3 -3 2 -17 -1 -32z m1078 20 c3 -8 2 -12 -4 -9 -6 3 -10
10 -10 16 0 14 7 11 14 -7z m1023 -16 c-3 -8 -6 -5 -6 6 -1 11 2 17 5 13 3 -3
4 -12 1 -19z m-3004 -9 c6 -23 -1 -49 -13 -49 -4 0 -8 16 -7 35 1 39 12 46 20
14z m753 -6 c-10 -10 -19 5 -10 18 6 11 8 11 12 0 2 -7 1 -15 -2 -18z m663
-11 c0 -24 -1 -25 -9 -7 -12 28 -12 47 0 40 6 -3 10 -18 9 -33z m-1012 -9 c-3
-10 -5 -4 -5 12 0 17 2 24 5 18 2 -7 2 -21 0 -30z m733 16 c0 -6 -4 -7 -10 -4
-5 3 -10 11 -10 16 0 6 5 7 10 4 6 -3 10 -11 10 -16z m412 -62 l-10 -42 -1 47
c0 25 -4 55 -7 65 -5 13 -1 11 11 -5 14 -20 16 -31 7 -65z m93 51 c-2 -18 -3
-42 -4 -52 -1 -15 -4 -17 -12 -9 -15 15 -17 64 -4 80 17 20 23 15 20 -19z
m-635 -7 c0 -17 -4 -33 -10 -36 -6 -4 -10 8 -10 29 0 20 5 36 10 36 6 0 10
-13 10 -29z m850 13 c0 -8 -4 -12 -10 -9 -5 3 -10 10 -10 16 0 5 5 9 10 9 6 0
10 -7 10 -16z m-1923 -26 c-3 -7 -5 -2 -5 12 0 14 2 19 5 13 2 -7 2 -19 0 -25z
m2223 -1 c0 -5 -4 -5 -10 -2 -5 3 -10 14 -10 23 0 15 2 15 10 2 5 -8 10 -19
10 -23z m-2103 -9 c-3 -8 -6 -5 -6 6 -1 11 2 17 5 13 3 -3 4 -12 1 -19z m1148
5 c-4 -10 -10 -26 -12 -35 -3 -10 -9 -18 -13 -18 -5 0 -3 16 3 35 6 19 15 35
20 35 5 0 6 -8 2 -17z m-1233 -11 c3 -10 -1 -27 -8 -37 -13 -17 -14 -16 -14
18 0 39 14 50 22 19z m760 -14 c-9 -9 -12 -7 -12 12 0 19 3 21 12 12 9 -9 9
-15 0 -24z"/>
<path d="M3868 5233 c7 -3 16 -2 19 1 4 3 -2 6 -13 5 -11 0 -14 -3 -6 -6z"/>
<path d="M3846 4791 c-4 -5 3 -7 14 -4 23 6 26 13 6 13 -8 0 -17 -4 -20 -9z"/>
<path d="M3756 4775 c-10 -8 -23 -12 -27 -9 -5 3 -9 3 -9 -1 0 -3 11 -10 24
-15 25 -9 86 6 86 22 0 4 -12 3 -26 -2 -33 -13 -34 -13 -28 5 7 18 4 18 -20 0z"/>
<path d="M3828 4413 c6 -2 18 -2 25 0 6 3 1 5 -13 5 -14 0 -19 -2 -12 -5z"/>
<path d="M3800 3870 c-8 -5 -10 -10 -5 -10 6 0 17 5 25 10 8 5 11 10 5 10 -5
0 -17 -5 -25 -10z"/>
<path d="M3748 3543 c7 -3 16 -2 19 1 4 3 -2 6 -13 5 -11 0 -14 -3 -6 -6z"/>
<path d="M3767 3389 c-22 -11 -37 -23 -34 -25 5 -5 77 35 77 42 0 6 -1 5 -43
-17z"/>
<path d="M3775 3184 c-11 -8 -27 -19 -35 -24 -12 -7 -13 -11 -2 -22 7 -7 12
-8 10 -2 -2 6 11 22 27 37 32 29 32 36 0 11z"/>
<path d="M4744 3008 l-19 -23 23 19 c21 18 27 26 19 26 -2 0 -12 -10 -23 -22z"/>
<path d="M4600 2970 c-8 -5 -12 -12 -9 -15 4 -3 12 1 19 10 14 17 11 19 -10 5z"/>
<path d="M2815 7810 c-16 -16 -26 -32 -23 -35 3 -3 17 10 32 30 33 43 29 45
-9 5z"/>
<path d="M3030 7810 c-9 -6 -10 -10 -3 -10 6 0 15 5 18 10 8 12 4 12 -15 0z"/>
<path d="M2969 7783 c-13 -17 -13 -17 6 -3 11 8 22 16 24 17 2 2 0 3 -6 3 -6
0 -17 -8 -24 -17z"/>
<path d="M2754 7774 c-18 -14 -18 -15 4 -4 12 6 22 13 22 15 0 8 -5 6 -26 -11z"/>
<path d="M4274 7734 c-18 -14 -18 -14 6 -3 31 14 36 19 24 19 -6 0 -19 -7 -30
-16z"/>
<path d="M2298 7733 c7 -3 16 -2 19 1 4 3 -2 6 -13 5 -11 0 -14 -3 -6 -6z"/>
<path d="M2231 7719 c-13 -5 -22 -12 -19 -14 3 -3 20 1 39 9 37 17 19 21 -20
5z"/>
<path d="M5549 7703 c-13 -16 -12 -17 4 -4 9 7 17 15 17 17 0 8 -8 3 -21 -13z"/>
<path d="M3965 7684 c-10 -16 -13 -30 -8 -35 6 -6 14 4 20 26 13 42 11 44 -12
9z"/>
<path d="M4679 7683 c-13 -16 -12 -17 4 -4 16 13 21 21 13 21 -2 0 -10 -8 -17
-17z"/>
<path d="M5246 7673 c-6 -14 -5 -15 5 -6 7 7 10 15 7 18 -3 3 -9 -2 -12 -12z"/>
<path d="M3621 7653 c-10 -26 -10 -27 4 -9 8 11 15 23 15 28 0 15 -7 8 -19
-19z"/>
<path d="M4089 7643 l-24 -28 28 24 c25 23 32 31 24 31 -2 0 -14 -12 -28 -27z"/>
<path d="M4515 7661 c-3 -6 3 -9 14 -8 11 0 17 5 15 9 -7 11 -22 10 -29 -1z"/>
<path d="M5748 7563 c7 -3 16 -2 19 1 4 3 -2 6 -13 5 -11 0 -14 -3 -6 -6z"/>
<path d="M5999 7453 c-13 -16 -12 -17 4 -4 9 7 17 15 17 17 0 8 -8 3 -21 -13z"/>
<path d="M5919 7423 c-13 -16 -12 -17 4 -4 9 7 17 15 17 17 0 8 -8 3 -21 -13z"/>
<path d="M6620 6970 c-9 -6 -10 -10 -3 -10 6 0 15 5 18 10 8 12 4 12 -15 0z"/>
<path d="M1650 6805 c-20 -24 -6 -28 15 -5 10 11 13 20 8 20 -6 0 -16 -7 -23
-15z"/>
<path d="M7118 6553 c7 -3 16 -2 19 1 4 3 -2 6 -13 5 -11 0 -14 -3 -6 -6z"/>
<path d="M7065 6330 c-3 -5 -1 -10 4 -10 6 0 11 5 11 10 0 6 -2 10 -4 10 -3 0
-8 -4 -11 -10z"/>
<path d="M7120 6329 c0 -5 5 -7 10 -4 6 3 10 8 10 11 0 2 -4 4 -10 4 -5 0 -10
-5 -10 -11z"/>
<path d="M7233 6323 c9 -2 23 -2 30 0 6 3 -1 5 -18 5 -16 0 -22 -2 -12 -5z"/>
<path d="M7206 6085 c-11 -8 -15 -15 -9 -15 6 0 16 7 23 15 16 19 11 19 -14 0z"/>
<path d="M7331 5934 c-19 -8 -32 -17 -28 -20 5 -6 67 23 67 31 0 6 0 7 -39
-11z"/>
<path d="M7325 5810 c-13 -6 -15 -9 -5 -9 8 0 22 4 30 9 18 12 2 12 -25 0z"/>
<path d="M7335 5510 c-3 -5 -2 -10 4 -10 5 0 13 5 16 10 3 6 2 10 -4 10 -5 0
-13 -4 -16 -10z"/>
<path d="M7400 5410 c-9 -6 -10 -10 -3 -10 6 0 15 5 18 10 8 12 4 12 -15 0z"/>
<path d="M7454 5220 c-12 -5 -25 -14 -29 -20 -6 -10 50 13 64 26 7 7 -13 3
-35 -6z"/>
<path d="M7490 4799 c0 -5 5 -7 10 -4 6 3 10 8 10 11 0 2 -4 4 -10 4 -5 0 -10
-5 -10 -11z"/>
<path d="M7492 4763 c-6 -2 -10 -9 -7 -13 3 -5 -4 -14 -15 -20 -11 -6 -17 -16
-14 -22 5 -7 12 -5 21 8 16 21 35 54 31 53 -2 0 -9 -3 -16 -6z"/>
<path d="M7658 4673 c7 -3 16 -2 19 1 4 3 -2 6 -13 5 -11 0 -14 -3 -6 -6z"/>
<path d="M7618 4663 c7 -3 16 -2 19 1 4 3 -2 6 -13 5 -11 0 -14 -3 -6 -6z"/>
<path d="M7449 4193 c-13 -17 -13 -17 6 -3 11 8 22 16 24 17 2 2 0 3 -6 3 -6
0 -17 -8 -24 -17z"/>
<path d="M1636 3937 c-14 -24 -26 -50 -26 -58 0 -8 14 10 30 40 36 65 33 81
-4 18z"/>
<path d="M7164 3034 c-19 -15 -19 -15 1 -6 11 5 27 12 35 15 13 5 13 6 -1 6
-8 1 -24 -6 -35 -15z"/>
<path d="M6720 2267 c0 -14 5 -29 10 -32 7 -4 8 3 4 22 -9 38 -14 42 -14 10z"/>
<path d="M1597 1698 c-39 -70 -61 -132 -54 -151 2 -6 9 6 16 28 8 22 29 71 48
109 43 87 36 98 -10 14z"/>
</g>
</svg>
